<?xml version="1.0" encoding="utf-8" standalone="no"?>
<!DOCTYPE svg PUBLIC "-//W3C//DTD SVG 1.1//EN"
  "http://www.w3.org/Graphics/SVG/1.1/DTD/svg11.dtd">
<svg xmlns:xlink="http://www.w3.org/1999/xlink" width="432pt" height="576pt" viewBox="0 0 432 576" xmlns="http://www.w3.org/2000/svg" version="1.1">
 <metadata>
  <rdf:RDF xmlns:dc="http://purl.org/dc/elements/1.1/" xmlns:cc="http://creativecommons.org/ns#" xmlns:rdf="http://www.w3.org/1999/02/22-rdf-syntax-ns#">
   <cc:Work>
    <dc:type rdf:resource="http://purl.org/dc/dcmitype/StillImage"/>
    <dc:date>2026-07-01T14:18:57.263458</dc:date>
    <dc:format>image/svg+xml</dc:format>
    <dc:creator>
     <cc:Agent>
      <dc:title>Matplotlib v3.10.9, https://matplotlib.org/</dc:title>
     </cc:Agent>
    </dc:creator>
   </cc:Work>
  </rdf:RDF>
 </metadata>
 <defs>
  <style type="text/css">*{stroke-linejoin: round; stroke-linecap: butt}</style>
 </defs>
 <g id="figure_1">
  <g id="patch_1">
   <path d="M 0 576 
L 432 576 
L 432 0 
L 0 0 
z
" style="fill: #ffffff"/>
  </g>
  <g id="axes_1">
   <g id="patch_2">
    <path d="M 47.403125 209.826855 
L 413.248437 209.826855 
L 413.248437 25.92 
L 47.403125 25.92 
z
" style="fill: #ffffff"/>
   </g>
   <g id="matplotlib.axis_1">
    <g id="xtick_1">
     <g id="line2d_1">
      <path d="M 47.403125 209.826855 
L 47.403125 25.92 
" clip-path="url(#pff99e8f3a5)" style="fill: none; stroke-dasharray: 0.8,1.32; stroke-dashoffset: 0; stroke: #b0b0b0; stroke-width: 0.8"/>
     </g>
     <g id="line2d_2">
      <defs>
       <path id="m4fb45c8328" d="M 0 0 
L 0 3.5 
" style="stroke: #000000; stroke-width: 0.8"/>
      </defs>
      <g>
       <use xlink:href="#m4fb45c8328" x="47.403125" y="209.826855" style="stroke: #000000; stroke-width: 0.8"/>
      </g>
     </g>
    </g>
    <g id="xtick_2">
     <g id="line2d_3">
      <path d="M 120.572188 209.826855 
L 120.572188 25.92 
" clip-path="url(#pff99e8f3a5)" style="fill: none; stroke-dasharray: 0.8,1.32; stroke-dashoffset: 0; stroke: #b0b0b0; stroke-width: 0.8"/>
     </g>
     <g id="line2d_4">
      <g>
       <use xlink:href="#m4fb45c8328" x="120.572188" y="209.826855" style="stroke: #000000; stroke-width: 0.8"/>
      </g>
     </g>
    </g>
    <g id="xtick_3">
     <g id="line2d_5">
      <path d="M 193.74125 209.826855 
L 193.74125 25.92 
" clip-path="url(#pff99e8f3a5)" style="fill: none; stroke-dasharray: 0.8,1.32; stroke-dashoffset: 0; stroke: #b0b0b0; stroke-width: 0.8"/>
     </g>
     <g id="line2d_6">
      <g>
       <use xlink:href="#m4fb45c8328" x="193.74125" y="209.826855" style="stroke: #000000; stroke-width: 0.8"/>
      </g>
     </g>
    </g>
    <g id="xtick_4">
     <g id="line2d_7">
      <path d="M 266.910313 209.826855 
L 266.910313 25.92 
" clip-path="url(#pff99e8f3a5)" style="fill: none; stroke-dasharray: 0.8,1.32; stroke-dashoffset: 0; stroke: #b0b0b0; stroke-width: 0.8"/>
     </g>
     <g id="line2d_8">
      <g>
       <use xlink:href="#m4fb45c8328" x="266.910313" y="209.826855" style="stroke: #000000; stroke-width: 0.8"/>
      </g>
     </g>
    </g>
    <g id="xtick_5">
     <g id="line2d_9">
      <path d="M 340.079375 209.826855 
L 340.079375 25.92 
" clip-path="url(#pff99e8f3a5)" style="fill: none; stroke-dasharray: 0.8,1.32; stroke-dashoffset: 0; stroke: #b0b0b0; stroke-width: 0.8"/>
     </g>
     <g id="line2d_10">
      <g>
       <use xlink:href="#m4fb45c8328" x="340.079375" y="209.826855" style="stroke: #000000; stroke-width: 0.8"/>
      </g>
     </g>
    </g>
    <g id="xtick_6">
     <g id="line2d_11">
      <path d="M 413.248438 209.826855 
L 413.248438 25.92 
" clip-path="url(#pff99e8f3a5)" style="fill: none; stroke-dasharray: 0.8,1.32; stroke-dashoffset: 0; stroke: #b0b0b0; stroke-width: 0.8"/>
     </g>
     <g id="line2d_12">
      <g>
       <use xlink:href="#m4fb45c8328" x="413.248438" y="209.826855" style="stroke: #000000; stroke-width: 0.8"/>
      </g>
     </g>
    </g>
   </g>
   <g id="matplotlib.axis_2">
    <g id="ytick_1">
     <g id="line2d_13">
      <path d="M 47.403125 209.826855 
L 413.248437 209.826855 
" clip-path="url(#pff99e8f3a5)" style="fill: none; stroke-dasharray: 0.8,1.32; stroke-dashoffset: 0; stroke: #b0b0b0; stroke-width: 0.8"/>
     </g>
     <g id="line2d_14">
      <defs>
       <path id="m4ae7cb0ea2" d="M 0 0 
L -3.5 0 
" style="stroke: #000000; stroke-width: 0.8"/>
      </defs>
      <g>
       <use xlink:href="#m4ae7cb0ea2" x="47.403125" y="209.826855" style="stroke: #000000; stroke-width: 0.8"/>
      </g>
     </g>
     <g id="text_1">
      <!-- 1.5 -->
      <g transform="translate(24.5 213.626074) scale(0.1 -0.1)">
       <defs>
        <path id="DejaVuSerif-31" d="M 909 0 
L 909 331 
L 1722 331 
L 1722 4213 
L 781 3603 
L 781 4013 
L 1919 4750 
L 2350 4750 
L 2350 331 
L 3163 331 
L 3163 0 
L 909 0 
z
" transform="scale(0.015625)"/>
        <path id="DejaVuSerif-2e" d="M 603 325 
Q 603 500 722 622 
Q 841 744 1019 744 
Q 1191 744 1312 622 
Q 1434 500 1434 325 
Q 1434 153 1312 31 
Q 1191 -91 1019 -91 
Q 841 -91 722 29 
Q 603 150 603 325 
z
" transform="scale(0.015625)"/>
        <path id="DejaVuSerif-35" d="M 3219 4666 
L 3219 4153 
L 1081 4153 
L 1081 2816 
Q 1244 2928 1461 2984 
Q 1678 3041 1947 3041 
Q 2703 3041 3140 2622 
Q 3578 2203 3578 1478 
Q 3578 738 3136 323 
Q 2694 -91 1894 -91 
Q 1572 -91 1234 -12 
Q 897 66 544 225 
L 544 1131 
L 897 1131 
Q 925 688 1179 453 
Q 1434 219 1894 219 
Q 2388 219 2653 544 
Q 2919 869 2919 1478 
Q 2919 2084 2655 2407 
Q 2391 2731 1894 2731 
Q 1613 2731 1398 2631 
Q 1184 2531 1019 2322 
L 750 2322 
L 750 4666 
L 3219 4666 
z
" transform="scale(0.015625)"/>
       </defs>
       <use xlink:href="#DejaVuSerif-31"/>
       <use xlink:href="#DejaVuSerif-2e" transform="translate(63.623047 0)"/>
       <use xlink:href="#DejaVuSerif-35" transform="translate(95.410156 0)"/>
      </g>
     </g>
    </g>
    <g id="ytick_2">
     <g id="line2d_15">
      <path d="M 47.403125 163.850142 
L 413.248437 163.850142 
" clip-path="url(#pff99e8f3a5)" style="fill: none; stroke-dasharray: 0.8,1.32; stroke-dashoffset: 0; stroke: #b0b0b0; stroke-width: 0.8"/>
     </g>
     <g id="line2d_16">
      <g>
       <use xlink:href="#m4ae7cb0ea2" x="47.403125" y="163.850142" style="stroke: #000000; stroke-width: 0.8"/>
      </g>
     </g>
     <g id="text_2">
      <!-- 2.0 -->
      <g transform="translate(24.5 167.64936) scale(0.1 -0.1)">
       <defs>
        <path id="DejaVuSerif-32" d="M 819 3553 
L 469 3553 
L 469 4384 
Q 803 4563 1142 4656 
Q 1481 4750 1806 4750 
Q 2534 4750 2956 4397 
Q 3378 4044 3378 3438 
Q 3378 2753 2422 1800 
Q 2347 1728 2309 1691 
L 1131 513 
L 3078 513 
L 3078 1088 
L 3444 1088 
L 3444 0 
L 434 0 
L 434 341 
L 1850 1753 
Q 2319 2222 2519 2614 
Q 2719 3006 2719 3438 
Q 2719 3909 2473 4175 
Q 2228 4441 1797 4441 
Q 1350 4441 1106 4219 
Q 863 3997 819 3553 
z
" transform="scale(0.015625)"/>
        <path id="DejaVuSerif-30" d="M 2034 219 
Q 2513 219 2750 744 
Q 2988 1269 2988 2328 
Q 2988 3391 2750 3916 
Q 2513 4441 2034 4441 
Q 1556 4441 1318 3916 
Q 1081 3391 1081 2328 
Q 1081 1269 1318 744 
Q 1556 219 2034 219 
z
M 2034 -91 
Q 1275 -91 848 546 
Q 422 1184 422 2328 
Q 422 3475 848 4112 
Q 1275 4750 2034 4750 
Q 2797 4750 3222 4112 
Q 3647 3475 3647 2328 
Q 3647 1184 3222 546 
Q 2797 -91 2034 -91 
z
" transform="scale(0.015625)"/>
       </defs>
       <use xlink:href="#DejaVuSerif-32"/>
       <use xlink:href="#DejaVuSerif-2e" transform="translate(63.623047 0)"/>
       <use xlink:href="#DejaVuSerif-30" transform="translate(95.410156 0)"/>
      </g>
     </g>
    </g>
    <g id="ytick_3">
     <g id="line2d_17">
      <path d="M 47.403125 117.873428 
L 413.248437 117.873428 
" clip-path="url(#pff99e8f3a5)" style="fill: none; stroke-dasharray: 0.8,1.32; stroke-dashoffset: 0; stroke: #b0b0b0; stroke-width: 0.8"/>
     </g>
     <g id="line2d_18">
      <g>
       <use xlink:href="#m4ae7cb0ea2" x="47.403125" y="117.873428" style="stroke: #000000; stroke-width: 0.8"/>
      </g>
     </g>
     <g id="text_3">
      <!-- 2.5 -->
      <g transform="translate(24.5 121.672646) scale(0.1 -0.1)">
       <use xlink:href="#DejaVuSerif-32"/>
       <use xlink:href="#DejaVuSerif-2e" transform="translate(63.623047 0)"/>
       <use xlink:href="#DejaVuSerif-35" transform="translate(95.410156 0)"/>
      </g>
     </g>
    </g>
    <g id="ytick_4">
     <g id="line2d_19">
      <path d="M 47.403125 71.896714 
L 413.248437 71.896714 
" clip-path="url(#pff99e8f3a5)" style="fill: none; stroke-dasharray: 0.8,1.32; stroke-dashoffset: 0; stroke: #b0b0b0; stroke-width: 0.8"/>
     </g>
     <g id="line2d_20">
      <g>
       <use xlink:href="#m4ae7cb0ea2" x="47.403125" y="71.896714" style="stroke: #000000; stroke-width: 0.8"/>
      </g>
     </g>
     <g id="text_4">
      <!-- 3.0 -->
      <g transform="translate(24.5 75.695933) scale(0.1 -0.1)">
       <defs>
        <path id="DejaVuSerif-33" d="M 622 4469 
Q 988 4606 1323 4678 
Q 1659 4750 1953 4750 
Q 2638 4750 3022 4454 
Q 3406 4159 3406 3634 
Q 3406 3213 3140 2930 
Q 2875 2647 2388 2547 
Q 2963 2466 3280 2130 
Q 3597 1794 3597 1259 
Q 3597 606 3158 257 
Q 2719 -91 1894 -91 
Q 1528 -91 1179 -12 
Q 831 66 488 225 
L 488 1131 
L 838 1131 
Q 869 681 1141 450 
Q 1413 219 1906 219 
Q 2384 219 2661 495 
Q 2938 772 2938 1253 
Q 2938 1803 2653 2086 
Q 2369 2369 1819 2369 
L 1522 2369 
L 1522 2688 
L 1678 2688 
Q 2225 2688 2498 2914 
Q 2772 3141 2772 3597 
Q 2772 4006 2547 4223 
Q 2322 4441 1900 4441 
Q 1478 4441 1245 4241 
Q 1013 4041 972 3647 
L 622 3647 
L 622 4469 
z
" transform="scale(0.015625)"/>
       </defs>
       <use xlink:href="#DejaVuSerif-33"/>
       <use xlink:href="#DejaVuSerif-2e" transform="translate(63.623047 0)"/>
       <use xlink:href="#DejaVuSerif-30" transform="translate(95.410156 0)"/>
      </g>
     </g>
    </g>
    <g id="ytick_5">
     <g id="line2d_21">
      <path d="M 47.403125 25.92 
L 413.248437 25.92 
" clip-path="url(#pff99e8f3a5)" style="fill: none; stroke-dasharray: 0.8,1.32; stroke-dashoffset: 0; stroke: #b0b0b0; stroke-width: 0.8"/>
     </g>
     <g id="line2d_22">
      <g>
       <use xlink:href="#m4ae7cb0ea2" x="47.403125" y="25.92" style="stroke: #000000; stroke-width: 0.8"/>
      </g>
     </g>
     <g id="text_5">
      <!-- 3.5 -->
      <g transform="translate(24.5 29.719219) scale(0.1 -0.1)">
       <use xlink:href="#DejaVuSerif-33"/>
       <use xlink:href="#DejaVuSerif-2e" transform="translate(63.623047 0)"/>
       <use xlink:href="#DejaVuSerif-35" transform="translate(95.410156 0)"/>
      </g>
     </g>
    </g>
    <g id="text_6">
     <!-- E (eV) -->
     <g transform="translate(18.420313 133.584365) rotate(-90) scale(0.1 -0.1)">
      <defs>
       <path id="DejaVuSerif-45" d="M 353 0 
L 353 331 
L 947 331 
L 947 4331 
L 353 4331 
L 353 4666 
L 4109 4666 
L 4109 3628 
L 3725 3628 
L 3725 4281 
L 1581 4281 
L 1581 2719 
L 3109 2719 
L 3109 3303 
L 3494 3303 
L 3494 1753 
L 3109 1753 
L 3109 2338 
L 1581 2338 
L 1581 384 
L 3775 384 
L 3775 1038 
L 4159 1038 
L 4159 0 
L 353 0 
z
" transform="scale(0.015625)"/>
       <path id="DejaVuSerif-20" transform="scale(0.015625)"/>
       <path id="DejaVuSerif-28" d="M 2041 -997 
Q 1281 -656 893 83 
Q 506 822 506 1931 
Q 506 3044 893 3783 
Q 1281 4522 2041 4863 
L 2041 4556 
Q 1559 4225 1350 3623 
Q 1141 3022 1141 1931 
Q 1141 844 1350 242 
Q 1559 -359 2041 -691 
L 2041 -997 
z
" transform="scale(0.015625)"/>
       <path id="DejaVuSerif-65" d="M 3469 1600 
L 991 1600 
L 991 1575 
Q 991 903 1244 561 
Q 1497 219 1991 219 
Q 2369 219 2611 417 
Q 2853 616 2950 1006 
L 3413 1006 
Q 3275 459 2904 184 
Q 2534 -91 1931 -91 
Q 1203 -91 761 389 
Q 319 869 319 1663 
Q 319 2450 753 2931 
Q 1188 3413 1894 3413 
Q 2647 3413 3050 2948 
Q 3453 2484 3469 1600 
z
M 2791 1931 
Q 2772 2513 2545 2808 
Q 2319 3103 1894 3103 
Q 1497 3103 1269 2806 
Q 1041 2509 991 1931 
L 2791 1931 
z
" transform="scale(0.015625)"/>
       <path id="DejaVuSerif-56" d="M 1119 4331 
L 2497 750 
L 3872 4331 
L 3347 4331 
L 3347 4666 
L 4716 4666 
L 4716 4331 
L 4263 4331 
L 2597 0 
L 2059 0 
L 403 4331 
L -63 4331 
L -63 4666 
L 1638 4666 
L 1638 4331 
L 1119 4331 
z
" transform="scale(0.015625)"/>
       <path id="DejaVuSerif-29" d="M 453 -997 
L 453 -691 
Q 934 -359 1145 242 
Q 1356 844 1356 1931 
Q 1356 3022 1145 3623 
Q 934 4225 453 4556 
L 453 4863 
Q 1216 4522 1603 3783 
Q 1991 3044 1991 1931 
Q 1991 822 1603 83 
Q 1216 -656 453 -997 
z
" transform="scale(0.015625)"/>
      </defs>
      <use xlink:href="#DejaVuSerif-45"/>
      <use xlink:href="#DejaVuSerif-20" transform="translate(72.998047 0)"/>
      <use xlink:href="#DejaVuSerif-28" transform="translate(104.785156 0)"/>
      <use xlink:href="#DejaVuSerif-65" transform="translate(143.798828 0)"/>
      <use xlink:href="#DejaVuSerif-56" transform="translate(202.978516 0)"/>
      <use xlink:href="#DejaVuSerif-29" transform="translate(275.195312 0)"/>
     </g>
    </g>
   </g>
   <g id="line2d_23">
    <path d="M 47.403125 58.137606 
L 51.061578 59.265263 
L 54.720031 60.393706 
L 58.378484 61.522059 
L 62.036937 62.650057 
L 65.695391 63.777556 
L 69.353844 64.904519 
L 73.012297 66.030961 
L 76.67075 67.156905 
L 80.329203 68.282333 
L 83.987656 69.407162 
L 87.646109 70.53125 
L 91.304562 71.654405 
L 94.963016 72.776414 
L 98.621469 73.897057 
L 102.279922 75.016118 
L 105.938375 76.133391 
L 109.596828 77.248676 
L 113.255281 78.361774 
L 116.913734 79.472485 
L 120.572187 80.580601 
L 124.230641 81.685907 
L 127.889094 82.788184 
L 131.547547 83.887205 
L 135.206 84.982744 
L 138.864453 86.074572 
L 142.522906 87.162463 
L 146.181359 88.246193 
L 149.839812 89.325541 
L 153.498266 90.400291 
L 157.156719 91.470231 
L 160.815172 92.535151 
L 164.473625 93.594848 
L 168.132078 94.64912 
L 171.790531 95.697767 
L 175.448984 96.740594 
L 179.107437 97.777409 
L 182.765891 98.808023 
L 186.424344 99.832248 
L 190.082797 100.849901 
L 193.74125 101.860803 
L 197.399703 102.864778 
L 201.058156 103.861651 
L 204.716609 104.851256 
L 208.375062 105.833427 
L 212.033516 106.808004 
L 215.691969 107.774832 
L 219.350422 108.733761 
L 223.008875 109.684646 
L 226.667328 110.627349 
L 230.325781 111.561736 
L 233.984234 112.48768 
L 237.642687 113.405062 
L 241.301141 114.313767 
L 244.959594 115.21369 
L 248.618047 116.104731 
L 252.2765 116.986797 
L 255.934953 117.859805 
L 259.593406 118.723677 
L 263.251859 119.578343 
L 266.910312 120.423741 
L 270.568766 121.259817 
L 274.227219 122.086525 
L 277.885672 122.903827 
L 281.544125 123.711691 
L 285.202578 124.510096 
L 288.861031 125.299026 
L 292.519484 126.078474 
L 296.177937 126.848442 
L 299.836391 127.608936 
L 303.494844 128.359973 
L 307.153297 129.101573 
L 310.81175 129.833767 
L 314.470203 130.55659 
L 318.128656 131.270085 
L 321.787109 131.9743 
L 325.445562 132.669289 
L 329.104016 133.355113 
L 332.762469 134.031838 
L 336.420922 134.699534 
L 340.079375 135.358279 
L 343.737828 136.008151 
L 347.396281 136.649238 
L 351.054734 137.281626 
L 354.713187 137.90541 
L 358.371641 138.520686 
L 362.030094 139.127552 
L 365.688547 139.72611 
L 369.347 140.316465 
L 373.005453 140.898724 
L 376.663906 141.472996 
L 380.322359 142.039389 
L 383.980812 142.598017 
L 387.639266 143.148993 
L 391.297719 143.69243 
L 394.956172 144.228442 
L 398.614625 144.757146 
L 402.273078 145.278657 
L 405.931531 145.793091 
L 409.589984 146.300562 
L 413.248437 146.801187 
" clip-path="url(#pff99e8f3a5)" style="fill: none; stroke: #1f77b4; stroke-width: 2; stroke-linecap: square"/>
   </g>
   <g id="line2d_24">
    <path d="M 47.403125 137.534432 
L 51.061578 137.334902 
L 54.720031 137.132602 
L 58.378484 136.927913 
L 62.036937 136.72105 
L 65.695391 136.512209 
L 69.353844 136.301551 
L 73.012297 136.089198 
L 76.67075 135.875232 
L 80.329203 135.659701 
L 83.987656 135.442635 
L 87.646109 135.224059 
L 91.304562 135.003999 
L 94.963016 134.782492 
L 98.621469 134.559585 
L 102.279922 134.335336 
L 105.938375 134.109808 
L 109.596828 133.88307 
L 113.255281 133.655192 
L 116.913734 133.426246 
L 120.572187 133.196303 
L 124.230641 132.965435 
L 127.889094 132.733718 
L 131.547547 132.501232 
L 135.206 132.268064 
L 138.864453 132.034309 
L 142.522906 131.800072 
L 146.181359 131.565467 
L 149.839812 131.330617 
L 153.498266 131.095655 
L 157.156719 130.860722 
L 160.815172 130.625963 
L 164.473625 130.391534 
L 168.132078 130.157591 
L 171.790531 129.924296 
L 175.448984 129.691811 
L 179.107437 129.460303 
L 182.765891 129.229935 
L 186.424344 129.000875 
L 190.082797 128.773288 
L 193.74125 128.547338 
L 197.399703 128.323188 
L 201.058156 128.101001 
L 204.716609 127.880935 
L 208.375062 127.663149 
L 212.033516 127.447798 
L 215.691969 127.235034 
L 219.350422 127.025007 
L 223.008875 126.817863 
L 226.667328 126.613746 
L 230.325781 126.412794 
L 233.984234 126.215143 
L 237.642687 126.020925 
L 241.301141 125.830266 
L 244.959594 125.643289 
L 248.618047 125.460112 
L 252.2765 125.280848 
L 255.934953 125.105605 
L 259.593406 124.934487 
L 263.251859 124.767591 
L 266.910312 124.60501 
L 270.568766 124.446831 
L 274.227219 124.293135 
L 277.885672 124.143998 
L 281.544125 123.999492 
L 285.202578 123.859682 
L 288.861031 123.724626 
L 292.519484 123.594379 
L 296.177937 123.46899 
L 299.836391 123.348503 
L 303.494844 123.232956 
L 307.153297 123.122384 
L 310.81175 123.016814 
L 314.470203 122.916273 
L 318.128656 122.82078 
L 321.787109 122.730352 
L 325.445562 122.645002 
L 329.104016 122.564739 
L 332.762469 122.489569 
L 336.420922 122.419495 
L 340.079375 122.35452 
L 343.737828 122.294643 
L 347.396281 122.239862 
L 351.054734 122.190173 
L 354.713187 122.145573 
L 358.371641 122.106059 
L 362.030094 122.071627 
L 365.688547 122.042275 
L 369.347 122.018001 
L 373.005453 121.998809 
L 376.663906 121.984701 
L 380.322359 121.975685 
L 383.980812 121.971774 
L 387.639266 121.972983 
L 391.297719 121.979335 
L 394.956172 121.990858 
L 398.614625 122.007589 
L 402.273078 122.029573 
L 405.931531 122.056863 
L 409.589984 122.089524 
L 413.248437 122.127632 
" clip-path="url(#pff99e8f3a5)" style="fill: none; stroke-dasharray: 7.4,3.2; stroke-dashoffset: 0; stroke: #1f77b4; stroke-width: 2"/>
   </g>
   <g id="line2d_25">
    <path d="M 47.403125 79.875328 
L 51.061578 81.25687 
L 54.720031 82.637585 
L 58.378484 84.017255 
L 62.036937 85.395669 
L 65.695391 86.772616 
L 69.353844 88.147893 
L 73.012297 89.521296 
L 76.67075 90.892627 
L 80.329203 92.26169 
L 83.987656 93.628293 
L 87.646109 94.992246 
L 91.304562 96.353362 
L 94.963016 97.711457 
L 98.621469 99.06635 
L 102.279922 100.417862 
L 105.938375 101.765817 
L 109.596828 103.11004 
L 113.255281 104.45036 
L 116.913734 105.786607 
L 120.572187 107.118614 
L 124.230641 108.446215 
L 127.889094 109.769246 
L 131.547547 111.087547 
L 135.206 112.400956 
L 138.864453 113.709316 
L 142.522906 115.01247 
L 146.181359 116.310264 
L 149.839812 117.602543 
L 153.498266 118.889157 
L 157.156719 120.169953 
L 160.815172 121.444784 
L 164.473625 122.713501 
L 168.132078 123.975957 
L 171.790531 125.232007 
L 175.448984 126.481507 
L 179.107437 127.724314 
L 182.765891 128.960284 
L 186.424344 130.189279 
L 190.082797 131.411156 
L 193.74125 132.625778 
L 197.399703 133.833007 
L 201.058156 135.032704 
L 204.716609 136.224734 
L 208.375062 137.408962 
L 212.033516 138.585252 
L 215.691969 139.753472 
L 219.350422 140.913488 
L 223.008875 142.065169 
L 226.667328 143.208384 
L 230.325781 144.343001 
L 233.984234 145.468892 
L 237.642687 146.585928 
L 241.301141 147.693981 
L 244.959594 148.792924 
L 248.618047 149.882631 
L 252.2765 150.962976 
L 255.934953 152.033835 
L 259.593406 153.095084 
L 263.251859 154.1466 
L 266.910312 155.188262 
L 270.568766 156.219948 
L 274.227219 157.241538 
L 277.885672 158.252914 
L 281.544125 159.253957 
L 285.202578 160.244551 
L 288.861031 161.224579 
L 292.519484 162.193926 
L 296.177937 163.152479 
L 299.836391 164.100125 
L 303.494844 165.036754 
L 307.153297 165.962254 
L 310.81175 166.876518 
L 314.470203 167.779438 
L 318.128656 168.670908 
L 321.787109 169.550824 
L 325.445562 170.419083 
L 329.104016 171.275584 
L 332.762469 172.120227 
L 336.420922 172.952914 
L 340.079375 173.77355 
L 343.737828 174.58204 
L 347.396281 175.378292 
L 351.054734 176.162216 
L 354.713187 176.933724 
L 358.371641 177.692729 
L 362.030094 178.439148 
L 365.688547 179.1729 
L 369.347 179.893905 
L 373.005453 180.602087 
L 376.663906 181.297371 
L 380.322359 181.979686 
L 383.980812 182.648964 
L 387.639266 183.305138 
L 391.297719 183.948146 
L 394.956172 184.577926 
L 398.614625 185.194422 
L 402.273078 185.797579 
L 405.931531 186.387346 
L 409.589984 186.963677 
L 413.248437 187.526525 
" clip-path="url(#pff99e8f3a5)" style="fill: none; stroke: #d62728; stroke-width: 2; stroke-linecap: square"/>
   </g>
   <g id="line2d_26">
    <path d="M 47.403125 100.117169 
L 51.061578 100.025443 
L 54.720031 99.934638 
L 58.378484 99.844845 
L 62.036937 99.756152 
L 65.695391 99.66865 
L 69.353844 99.582427 
L 73.012297 99.49757 
L 76.67075 99.414168 
L 80.329203 99.332307 
L 83.987656 99.252076 
L 87.646109 99.173561 
L 91.304562 99.096849 
L 94.963016 99.022026 
L 98.621469 98.94918 
L 102.279922 98.878398 
L 105.938375 98.809765 
L 109.596828 98.743369 
L 113.255281 98.679298 
L 116.913734 98.617638 
L 120.572187 98.558478 
L 124.230641 98.501906 
L 127.889094 98.44801 
L 131.547547 98.396879 
L 135.206 98.348603 
L 138.864453 98.303273 
L 142.522906 98.260979 
L 146.181359 98.221813 
L 149.839812 98.185868 
L 153.498266 98.153236 
L 157.156719 98.124012 
L 160.815172 98.098291 
L 164.473625 98.07617 
L 168.132078 98.057745 
L 171.790531 98.043115 
L 175.448984 98.032379 
L 179.107437 98.025638 
L 182.765891 98.022994 
L 186.424344 98.024551 
L 190.082797 98.030412 
L 193.74125 98.040685 
L 197.399703 98.055477 
L 201.058156 98.074896 
L 204.716609 98.099054 
L 208.375062 98.128062 
L 212.033516 98.162036 
L 215.691969 98.201089 
L 219.350422 98.245341 
L 223.008875 98.29491 
L 226.667328 98.349917 
L 230.325781 98.410486 
L 233.984234 98.476741 
L 237.642687 98.548809 
L 241.301141 98.626819 
L 244.959594 98.710903 
L 248.618047 98.801193 
L 252.2765 98.897824 
L 255.934953 99.000935 
L 259.593406 99.110664 
L 263.251859 99.227153 
L 266.910312 99.350548 
L 270.568766 99.480994 
L 274.227219 99.618639 
L 277.885672 99.763636 
L 281.544125 99.916137 
L 285.202578 100.076297 
L 288.861031 100.244277 
L 292.519484 100.420234 
L 296.177937 100.604333 
L 299.836391 100.796739 
L 303.494844 100.997618 
L 307.153297 101.20714 
L 310.81175 101.425477 
L 314.470203 101.652804 
L 318.128656 101.889295 
L 321.787109 102.13513 
L 325.445562 102.390487 
L 329.104016 102.655549 
L 332.762469 102.930499 
L 336.420922 103.215521 
L 340.079375 103.510802 
L 343.737828 103.816529 
L 347.396281 104.13289 
L 351.054734 104.460075 
L 354.713187 104.798272 
L 358.371641 105.147672 
L 362.030094 105.508463 
L 365.688547 105.880835 
L 369.347 106.264976 
L 373.005453 106.661072 
L 376.663906 107.069309 
L 380.322359 107.48987 
L 383.980812 107.922935 
L 387.639266 108.368682 
L 391.297719 108.827284 
L 394.956172 109.298911 
L 398.614625 109.783727 
L 402.273078 110.28189 
L 405.931531 110.793554 
L 409.589984 111.318865 
L 413.248437 111.85796 
" clip-path="url(#pff99e8f3a5)" style="fill: none; stroke-dasharray: 7.4,3.2; stroke-dashoffset: 0; stroke: #d62728; stroke-width: 2"/>
   </g>
   <g id="patch_3">
    <path d="M 47.403125 209.826855 
L 47.403125 25.92 
" style="fill: none; stroke: #000000; stroke-width: 0.8; stroke-linejoin: miter; stroke-linecap: square"/>
   </g>
   <g id="patch_4">
    <path d="M 413.248437 209.826855 
L 413.248437 25.92 
" style="fill: none; stroke: #000000; stroke-width: 0.8; stroke-linejoin: miter; stroke-linecap: square"/>
   </g>
   <g id="patch_5">
    <path d="M 47.403125 209.826855 
L 413.248437 209.826855 
" style="fill: none; stroke: #000000; stroke-width: 0.8; stroke-linejoin: miter; stroke-linecap: square"/>
   </g>
   <g id="patch_6">
    <path d="M 47.403125 25.92 
L 413.248437 25.92 
" style="fill: none; stroke: #000000; stroke-width: 0.8; stroke-linejoin: miter; stroke-linecap: square"/>
   </g>
   <g id="text_7">
    <!-- Approximate $\mu_{14}$ from TDDFT -->
    <g transform="translate(140.025781 19.92) scale(0.12 -0.12)">
     <defs>
      <path id="DejaVuSerif-41" d="M 1281 1691 
L 2994 1691 
L 2138 3909 
L 1281 1691 
z
M -38 0 
L -38 331 
L 372 331 
L 2034 4666 
L 2559 4666 
L 4225 331 
L 4684 331 
L 4684 0 
L 2988 0 
L 2988 331 
L 3506 331 
L 3116 1356 
L 1153 1356 
L 763 331 
L 1275 331 
L 1275 0 
L -38 0 
z
" transform="scale(0.015625)"/>
      <path id="DejaVuSerif-70" d="M 1313 1825 
L 1313 1497 
Q 1313 897 1542 583 
Q 1772 269 2209 269 
Q 2650 269 2876 622 
Q 3103 975 3103 1663 
Q 3103 2353 2876 2703 
Q 2650 3053 2209 3053 
Q 1772 3053 1542 2737 
Q 1313 2422 1313 1825 
z
M 738 2988 
L 184 2988 
L 184 3322 
L 1313 3322 
L 1313 2803 
Q 1481 3116 1742 3264 
Q 2003 3413 2388 3413 
Q 3000 3413 3387 2928 
Q 3775 2444 3775 1663 
Q 3775 881 3387 395 
Q 3000 -91 2388 -91 
Q 2003 -91 1742 57 
Q 1481 206 1313 519 
L 1313 -997 
L 1856 -997 
L 1856 -1331 
L 184 -1331 
L 184 -997 
L 738 -997 
L 738 2988 
z
" transform="scale(0.015625)"/>
      <path id="DejaVuSerif-72" d="M 3059 3328 
L 3059 2497 
L 2728 2497 
Q 2713 2744 2591 2866 
Q 2469 2988 2234 2988 
Q 1809 2988 1582 2694 
Q 1356 2400 1356 1850 
L 1356 331 
L 2022 331 
L 2022 0 
L 263 0 
L 263 331 
L 781 331 
L 781 2994 
L 231 2994 
L 231 3322 
L 1356 3322 
L 1356 2731 
Q 1525 3078 1790 3245 
Q 2056 3413 2438 3413 
Q 2578 3413 2733 3391 
Q 2888 3369 3059 3328 
z
" transform="scale(0.015625)"/>
      <path id="DejaVuSerif-6f" d="M 1925 219 
Q 2388 219 2623 584 
Q 2859 950 2859 1663 
Q 2859 2375 2623 2739 
Q 2388 3103 1925 3103 
Q 1463 3103 1227 2739 
Q 991 2375 991 1663 
Q 991 950 1228 584 
Q 1466 219 1925 219 
z
M 1925 -91 
Q 1200 -91 759 389 
Q 319 869 319 1663 
Q 319 2456 758 2934 
Q 1197 3413 1925 3413 
Q 2653 3413 3092 2934 
Q 3531 2456 3531 1663 
Q 3531 869 3092 389 
Q 2653 -91 1925 -91 
z
" transform="scale(0.015625)"/>
      <path id="DejaVuSerif-78" d="M 1863 2028 
L 2559 2988 
L 2113 2988 
L 2113 3322 
L 3391 3322 
L 3391 2988 
L 2950 2988 
L 2059 1759 
L 3097 331 
L 3531 331 
L 3531 0 
L 1997 0 
L 1997 331 
L 2419 331 
L 1697 1325 
L 972 331 
L 1403 331 
L 1403 0 
L 141 0 
L 141 331 
L 581 331 
L 1497 1594 
L 488 2988 
L 78 2988 
L 78 3322 
L 1563 3322 
L 1563 2988 
L 1166 2988 
L 1863 2028 
z
" transform="scale(0.015625)"/>
      <path id="DejaVuSerif-69" d="M 622 4353 
Q 622 4497 726 4603 
Q 831 4709 978 4709 
Q 1122 4709 1226 4603 
Q 1331 4497 1331 4353 
Q 1331 4206 1228 4103 
Q 1125 4000 978 4000 
Q 831 4000 726 4103 
Q 622 4206 622 4353 
z
M 1356 331 
L 1900 331 
L 1900 0 
L 231 0 
L 231 331 
L 781 331 
L 781 2988 
L 231 2988 
L 231 3322 
L 1356 3322 
L 1356 331 
z
" transform="scale(0.015625)"/>
      <path id="DejaVuSerif-6d" d="M 3316 2675 
Q 3481 3041 3739 3227 
Q 3997 3413 4341 3413 
Q 4863 3413 5119 3089 
Q 5375 2766 5375 2113 
L 5375 331 
L 5894 331 
L 5894 0 
L 4300 0 
L 4300 331 
L 4800 331 
L 4800 2047 
Q 4800 2556 4650 2772 
Q 4500 2988 4153 2988 
Q 3769 2988 3567 2697 
Q 3366 2406 3366 1850 
L 3366 331 
L 3866 331 
L 3866 0 
L 2291 0 
L 2291 331 
L 2791 331 
L 2791 2069 
Q 2791 2566 2641 2777 
Q 2491 2988 2144 2988 
Q 1759 2988 1557 2697 
Q 1356 2406 1356 1850 
L 1356 331 
L 1856 331 
L 1856 0 
L 263 0 
L 263 331 
L 781 331 
L 781 2994 
L 231 2994 
L 231 3322 
L 1356 3322 
L 1356 2731 
Q 1516 3063 1762 3238 
Q 2009 3413 2322 3413 
Q 2709 3413 2968 3220 
Q 3228 3028 3316 2675 
z
" transform="scale(0.015625)"/>
      <path id="DejaVuSerif-61" d="M 2547 1044 
L 2547 1747 
L 1806 1747 
Q 1378 1747 1168 1562 
Q 959 1378 959 997 
Q 959 650 1171 447 
Q 1384 244 1747 244 
Q 2106 244 2326 466 
Q 2547 688 2547 1044 
z
M 3122 2075 
L 3122 331 
L 3634 331 
L 3634 0 
L 2547 0 
L 2547 359 
Q 2356 128 2106 18 
Q 1856 -91 1522 -91 
Q 969 -91 644 203 
Q 319 497 319 997 
Q 319 1513 691 1797 
Q 1063 2081 1741 2081 
L 2547 2081 
L 2547 2309 
Q 2547 2688 2317 2895 
Q 2088 3103 1672 3103 
Q 1328 3103 1125 2947 
Q 922 2791 872 2484 
L 575 2484 
L 575 3156 
Q 875 3284 1158 3348 
Q 1441 3413 1709 3413 
Q 2400 3413 2761 3070 
Q 3122 2728 3122 2075 
z
" transform="scale(0.015625)"/>
      <path id="DejaVuSerif-74" d="M 691 2988 
L 184 2988 
L 184 3322 
L 691 3322 
L 691 4353 
L 1269 4353 
L 1269 3322 
L 2350 3322 
L 2350 2988 
L 1269 2988 
L 1269 878 
Q 1269 456 1350 337 
Q 1431 219 1650 219 
Q 1875 219 1978 351 
Q 2081 484 2088 781 
L 2522 781 
Q 2497 328 2275 118 
Q 2053 -91 1600 -91 
Q 1103 -91 897 129 
Q 691 350 691 878 
L 691 2988 
z
" transform="scale(0.015625)"/>
      <path id="DejaVuSans-Oblique-3bc" d="M -84 -1331 
L 856 3500 
L 1434 3500 
L 1009 1322 
Q 997 1256 987 1175 
Q 978 1094 978 1013 
Q 978 722 1161 565 
Q 1344 409 1684 409 
Q 2147 409 2431 671 
Q 2716 934 2816 1459 
L 3213 3500 
L 3788 3500 
L 3266 809 
Q 3253 750 3248 706 
Q 3244 663 3244 628 
Q 3244 531 3283 486 
Q 3322 441 3406 441 
Q 3438 441 3492 456 
Q 3547 472 3647 513 
L 3559 50 
Q 3422 -19 3297 -55 
Q 3172 -91 3053 -91 
Q 2847 -91 2730 40 
Q 2613 172 2613 403 
Q 2438 153 2195 31 
Q 1953 -91 1625 -91 
Q 1334 -91 1117 43 
Q 900 178 831 397 
L 494 -1331 
L -84 -1331 
z
" transform="scale(0.015625)"/>
      <path id="DejaVuSans-31" d="M 794 531 
L 1825 531 
L 1825 4091 
L 703 3866 
L 703 4441 
L 1819 4666 
L 2450 4666 
L 2450 531 
L 3481 531 
L 3481 0 
L 794 0 
L 794 531 
z
" transform="scale(0.015625)"/>
      <path id="DejaVuSans-34" d="M 2419 4116 
L 825 1625 
L 2419 1625 
L 2419 4116 
z
M 2253 4666 
L 3047 4666 
L 3047 1625 
L 3713 1625 
L 3713 1100 
L 3047 1100 
L 3047 0 
L 2419 0 
L 2419 1100 
L 313 1100 
L 313 1709 
L 2253 4666 
z
" transform="scale(0.015625)"/>
      <path id="DejaVuSerif-66" d="M 2753 4078 
L 2450 4078 
Q 2447 4313 2317 4434 
Q 2188 4556 1941 4556 
Q 1619 4556 1487 4379 
Q 1356 4203 1356 3750 
L 1356 3322 
L 2284 3322 
L 2284 2988 
L 1356 2988 
L 1356 331 
L 2094 331 
L 2094 0 
L 231 0 
L 231 331 
L 781 331 
L 781 2988 
L 231 2988 
L 231 3322 
L 781 3322 
L 781 3738 
Q 781 4294 1070 4578 
Q 1359 4863 1919 4863 
Q 2128 4863 2337 4825 
Q 2547 4788 2753 4709 
L 2753 4078 
z
" transform="scale(0.015625)"/>
      <path id="DejaVuSerif-54" d="M 1222 0 
L 1222 331 
L 1819 331 
L 1819 4294 
L 447 4294 
L 447 3566 
L 63 3566 
L 63 4666 
L 4206 4666 
L 4206 3566 
L 3822 3566 
L 3822 4294 
L 2450 4294 
L 2450 331 
L 3047 331 
L 3047 0 
L 1222 0 
z
" transform="scale(0.015625)"/>
      <path id="DejaVuSerif-44" d="M 1581 331 
L 2163 331 
Q 3072 331 3558 850 
Q 4044 1369 4044 2338 
Q 4044 3306 3559 3818 
Q 3075 4331 2163 4331 
L 1581 4331 
L 1581 331 
z
M 353 0 
L 353 331 
L 947 331 
L 947 4331 
L 353 4331 
L 353 4666 
L 2209 4666 
Q 3416 4666 4089 4050 
Q 4763 3434 4763 2338 
Q 4763 1238 4088 619 
Q 3413 0 2209 0 
L 353 0 
z
" transform="scale(0.015625)"/>
      <path id="DejaVuSerif-46" d="M 353 0 
L 353 331 
L 947 331 
L 947 4331 
L 353 4331 
L 353 4666 
L 4172 4666 
L 4172 3628 
L 3788 3628 
L 3788 4281 
L 1581 4281 
L 1581 2719 
L 3175 2719 
L 3175 3303 
L 3559 3303 
L 3559 1753 
L 3175 1753 
L 3175 2338 
L 1581 2338 
L 1581 331 
L 2328 331 
L 2328 0 
L 353 0 
z
" transform="scale(0.015625)"/>
     </defs>
     <use xlink:href="#DejaVuSerif-41" transform="translate(0 0.015625)"/>
     <use xlink:href="#DejaVuSerif-70" transform="translate(72.216797 0.015625)"/>
     <use xlink:href="#DejaVuSerif-70" transform="translate(136.230469 0.015625)"/>
     <use xlink:href="#DejaVuSerif-72" transform="translate(200.244141 0.015625)"/>
     <use xlink:href="#DejaVuSerif-6f" transform="translate(248.046875 0.015625)"/>
     <use xlink:href="#DejaVuSerif-78" transform="translate(308.251953 0.015625)"/>
     <use xlink:href="#DejaVuSerif-69" transform="translate(364.648438 0.015625)"/>
     <use xlink:href="#DejaVuSerif-6d" transform="translate(396.630859 0.015625)"/>
     <use xlink:href="#DejaVuSerif-61" transform="translate(491.455078 0.015625)"/>
     <use xlink:href="#DejaVuSerif-74" transform="translate(551.074219 0.015625)"/>
     <use xlink:href="#DejaVuSerif-65" transform="translate(591.259766 0.015625)"/>
     <use xlink:href="#DejaVuSerif-20" transform="translate(650.439453 0.015625)"/>
     <use xlink:href="#DejaVuSans-Oblique-3bc" transform="translate(682.226562 0.015625)"/>
     <use xlink:href="#DejaVuSans-31" transform="translate(745.849609 -16.390625) scale(0.7)"/>
     <use xlink:href="#DejaVuSans-34" transform="translate(790.385742 -16.390625) scale(0.7)"/>
     <use xlink:href="#DejaVuSerif-20" transform="translate(837.65625 0.015625)"/>
     <use xlink:href="#DejaVuSerif-66" transform="translate(869.443359 0.015625)"/>
     <use xlink:href="#DejaVuSerif-72" transform="translate(906.455078 0.015625)"/>
     <use xlink:href="#DejaVuSerif-6f" transform="translate(954.257812 0.015625)"/>
     <use xlink:href="#DejaVuSerif-6d" transform="translate(1014.462891 0.015625)"/>
     <use xlink:href="#DejaVuSerif-20" transform="translate(1109.287109 0.015625)"/>
     <use xlink:href="#DejaVuSerif-54" transform="translate(1141.074219 0.015625)"/>
     <use xlink:href="#DejaVuSerif-44" transform="translate(1207.773438 0.015625)"/>
     <use xlink:href="#DejaVuSerif-44" transform="translate(1287.949219 0.015625)"/>
     <use xlink:href="#DejaVuSerif-46" transform="translate(1368.125 0.015625)"/>
     <use xlink:href="#DejaVuSerif-54" transform="translate(1437.509766 0.015625)"/>
    </g>
   </g>
   <g id="legend_1">
    <g id="patch_7">
     <path d="M 342.848437 101.52 
L 406.248437 101.52 
Q 408.248437 101.52 408.248437 99.52 
L 408.248437 32.92 
Q 408.248437 30.92 406.248437 30.92 
L 342.848437 30.92 
Q 340.848437 30.92 340.848437 32.92 
L 340.848437 99.52 
Q 340.848437 101.52 342.848437 101.52 
z
" style="fill: #ffffff; opacity: 0.8; stroke: #cccccc; stroke-linejoin: miter"/>
    </g>
    <g id="line2d_27">
     <path d="M 344.848437 40.42 
L 354.848437 40.42 
L 364.848437 40.42 
" style="fill: none; stroke: #1f77b4; stroke-width: 2; stroke-linecap: square"/>
    </g>
    <g id="text_8">
     <!-- $\Omega_{01}^\text{TDDFT}$ -->
     <g transform="translate(372.848437 43.92) scale(0.1 -0.1)">
      <defs>
       <path id="DejaVuSans-3a9" d="M 4647 556 
L 4647 0 
L 2772 0 
L 2772 556 
Q 3325 859 3634 1378 
Q 3944 1897 3944 2528 
Q 3944 3278 3531 3731 
Q 3119 4184 2444 4184 
Q 1769 4184 1355 3729 
Q 941 3275 941 2528 
Q 941 1897 1250 1378 
Q 1563 859 2119 556 
L 2119 0 
L 244 0 
L 244 556 
L 1241 556 
Q 747 991 519 1456 
Q 294 1922 294 2497 
Q 294 3491 894 4106 
Q 1491 4722 2444 4722 
Q 3391 4722 3994 4106 
Q 4594 3494 4594 2528 
Q 4594 1922 4372 1459 
Q 4150 997 3647 556 
L 4647 556 
z
" transform="scale(0.015625)"/>
       <path id="DejaVuSans-54" d="M -19 4666 
L 3928 4666 
L 3928 4134 
L 2272 4134 
L 2272 0 
L 1638 0 
L 1638 4134 
L -19 4134 
L -19 4666 
z
" transform="scale(0.015625)"/>
       <path id="DejaVuSans-44" d="M 1259 4147 
L 1259 519 
L 2022 519 
Q 2988 519 3436 956 
Q 3884 1394 3884 2338 
Q 3884 3275 3436 3711 
Q 2988 4147 2022 4147 
L 1259 4147 
z
M 628 4666 
L 1925 4666 
Q 3281 4666 3915 4102 
Q 4550 3538 4550 2338 
Q 4550 1131 3912 565 
Q 3275 0 1925 0 
L 628 0 
L 628 4666 
z
" transform="scale(0.015625)"/>
       <path id="DejaVuSans-46" d="M 628 4666 
L 3309 4666 
L 3309 4134 
L 1259 4134 
L 1259 2759 
L 3109 2759 
L 3109 2228 
L 1259 2228 
L 1259 0 
L 628 0 
L 628 4666 
z
" transform="scale(0.015625)"/>
       <path id="DejaVuSans-30" d="M 2034 4250 
Q 1547 4250 1301 3770 
Q 1056 3291 1056 2328 
Q 1056 1369 1301 889 
Q 1547 409 2034 409 
Q 2525 409 2770 889 
Q 3016 1369 3016 2328 
Q 3016 3291 2770 3770 
Q 2525 4250 2034 4250 
z
M 2034 4750 
Q 2819 4750 3233 4129 
Q 3647 3509 3647 2328 
Q 3647 1150 3233 529 
Q 2819 -91 2034 -91 
Q 1250 -91 836 529 
Q 422 1150 422 2328 
Q 422 3509 836 4129 
Q 1250 4750 2034 4750 
z
" transform="scale(0.015625)"/>
      </defs>
      <use xlink:href="#DejaVuSans-3a9" transform="translate(0 0.684375)"/>
      <use xlink:href="#DejaVuSans-54" transform="translate(77.373047 38.965625) scale(0.7)"/>
      <use xlink:href="#DejaVuSans-44" transform="translate(120.131836 38.965625) scale(0.7)"/>
      <use xlink:href="#DejaVuSans-44" transform="translate(174.033203 38.965625) scale(0.7)"/>
      <use xlink:href="#DejaVuSans-46" transform="translate(227.93457 38.965625) scale(0.7)"/>
      <use xlink:href="#DejaVuSans-54" transform="translate(268.198242 38.965625) scale(0.7)"/>
      <use xlink:href="#DejaVuSans-30" transform="translate(77.373047 -26.659375) scale(0.7)"/>
      <use xlink:href="#DejaVuSans-31" transform="translate(121.90918 -26.659375) scale(0.7)"/>
     </g>
    </g>
    <g id="line2d_28">
     <path d="M 344.848437 57.32 
L 354.848437 57.32 
L 364.848437 57.32 
" style="fill: none; stroke-dasharray: 7.4,3.2; stroke-dashoffset: 0; stroke: #1f77b4; stroke-width: 2"/>
    </g>
    <g id="text_9">
     <!-- $\Omega_{14}^\text{TDDFT}$ -->
     <g transform="translate(372.848437 60.82) scale(0.1 -0.1)">
      <use xlink:href="#DejaVuSans-3a9" transform="translate(0 0.684375)"/>
      <use xlink:href="#DejaVuSans-54" transform="translate(77.373047 38.965625) scale(0.7)"/>
      <use xlink:href="#DejaVuSans-44" transform="translate(120.131836 38.965625) scale(0.7)"/>
      <use xlink:href="#DejaVuSans-44" transform="translate(174.033203 38.965625) scale(0.7)"/>
      <use xlink:href="#DejaVuSans-46" transform="translate(227.93457 38.965625) scale(0.7)"/>
      <use xlink:href="#DejaVuSans-54" transform="translate(268.198242 38.965625) scale(0.7)"/>
      <use xlink:href="#DejaVuSans-31" transform="translate(77.373047 -26.659375) scale(0.7)"/>
      <use xlink:href="#DejaVuSans-34" transform="translate(121.90918 -26.659375) scale(0.7)"/>
     </g>
    </g>
    <g id="line2d_29">
     <path d="M 344.848437 74.22 
L 354.848437 74.22 
L 364.848437 74.22 
" style="fill: none; stroke: #d62728; stroke-width: 2; stroke-linecap: square"/>
    </g>
    <g id="text_10">
     <!-- $\Omega_{01}^\text{FCI}$ -->
     <g transform="translate(372.848437 77.72) scale(0.1 -0.1)">
      <defs>
       <path id="DejaVuSans-43" d="M 4122 4306 
L 4122 3641 
Q 3803 3938 3442 4084 
Q 3081 4231 2675 4231 
Q 1875 4231 1450 3742 
Q 1025 3253 1025 2328 
Q 1025 1406 1450 917 
Q 1875 428 2675 428 
Q 3081 428 3442 575 
Q 3803 722 4122 1019 
L 4122 359 
Q 3791 134 3420 21 
Q 3050 -91 2638 -91 
Q 1578 -91 968 557 
Q 359 1206 359 2328 
Q 359 3453 968 4101 
Q 1578 4750 2638 4750 
Q 3056 4750 3426 4639 
Q 3797 4528 4122 4306 
z
" transform="scale(0.015625)"/>
       <path id="DejaVuSans-49" d="M 628 4666 
L 1259 4666 
L 1259 0 
L 628 0 
L 628 4666 
z
" transform="scale(0.015625)"/>
      </defs>
      <use xlink:href="#DejaVuSans-3a9" transform="translate(0 0.765625)"/>
      <use xlink:href="#DejaVuSans-46" transform="translate(77.373047 39.046875) scale(0.7)"/>
      <use xlink:href="#DejaVuSans-43" transform="translate(117.636719 39.046875) scale(0.7)"/>
      <use xlink:href="#DejaVuSans-49" transform="translate(166.513672 39.046875) scale(0.7)"/>
      <use xlink:href="#DejaVuSans-30" transform="translate(77.373047 -26.578125) scale(0.7)"/>
      <use xlink:href="#DejaVuSans-31" transform="translate(121.90918 -26.578125) scale(0.7)"/>
     </g>
    </g>
    <g id="line2d_30">
     <path d="M 344.848437 91.22 
L 354.848437 91.22 
L 364.848437 91.22 
" style="fill: none; stroke-dasharray: 7.4,3.2; stroke-dashoffset: 0; stroke: #d62728; stroke-width: 2"/>
    </g>
    <g id="text_11">
     <!-- $\Omega_{14}^\text{FCI}$ -->
     <g transform="translate(372.848437 94.72) scale(0.1 -0.1)">
      <use xlink:href="#DejaVuSans-3a9" transform="translate(0 0.765625)"/>
      <use xlink:href="#DejaVuSans-46" transform="translate(77.373047 39.046875) scale(0.7)"/>
      <use xlink:href="#DejaVuSans-43" transform="translate(117.636719 39.046875) scale(0.7)"/>
      <use xlink:href="#DejaVuSans-49" transform="translate(166.513672 39.046875) scale(0.7)"/>
      <use xlink:href="#DejaVuSans-31" transform="translate(77.373047 -26.578125) scale(0.7)"/>
      <use xlink:href="#DejaVuSans-34" transform="translate(121.90918 -26.578125) scale(0.7)"/>
     </g>
    </g>
   </g>
  </g>
  <g id="axes_2">
   <g id="patch_8">
    <path d="M 47.403125 533.017187 
L 413.248437 533.017187 
L 413.248437 226.505762 
L 47.403125 226.505762 
z
" style="fill: #ffffff"/>
   </g>
   <g id="matplotlib.axis_3">
    <g id="xtick_7">
     <g id="line2d_31">
      <path d="M 47.403125 533.017187 
L 47.403125 226.505762 
" clip-path="url(#p3ebe518fd8)" style="fill: none; stroke-dasharray: 0.8,1.32; stroke-dashoffset: 0; stroke: #b0b0b0; stroke-width: 0.8"/>
     </g>
     <g id="line2d_32">
      <g>
       <use xlink:href="#m4fb45c8328" x="47.403125" y="533.017187" style="stroke: #000000; stroke-width: 0.8"/>
      </g>
     </g>
     <g id="text_12">
      <!-- 2.0 -->
      <g transform="translate(39.451563 547.615625) scale(0.1 -0.1)">
       <use xlink:href="#DejaVuSerif-32"/>
       <use xlink:href="#DejaVuSerif-2e" transform="translate(63.623047 0)"/>
       <use xlink:href="#DejaVuSerif-30" transform="translate(95.410156 0)"/>
      </g>
     </g>
    </g>
    <g id="xtick_8">
     <g id="line2d_33">
      <path d="M 120.572188 533.017187 
L 120.572188 226.505762 
" clip-path="url(#p3ebe518fd8)" style="fill: none; stroke-dasharray: 0.8,1.32; stroke-dashoffset: 0; stroke: #b0b0b0; stroke-width: 0.8"/>
     </g>
     <g id="line2d_34">
      <g>
       <use xlink:href="#m4fb45c8328" x="120.572188" y="533.017187" style="stroke: #000000; stroke-width: 0.8"/>
      </g>
     </g>
     <g id="text_13">
      <!-- 2.2 -->
      <g transform="translate(112.620625 547.615625) scale(0.1 -0.1)">
       <use xlink:href="#DejaVuSerif-32"/>
       <use xlink:href="#DejaVuSerif-2e" transform="translate(63.623047 0)"/>
       <use xlink:href="#DejaVuSerif-32" transform="translate(95.410156 0)"/>
      </g>
     </g>
    </g>
    <g id="xtick_9">
     <g id="line2d_35">
      <path d="M 193.74125 533.017187 
L 193.74125 226.505762 
" clip-path="url(#p3ebe518fd8)" style="fill: none; stroke-dasharray: 0.8,1.32; stroke-dashoffset: 0; stroke: #b0b0b0; stroke-width: 0.8"/>
     </g>
     <g id="line2d_36">
      <g>
       <use xlink:href="#m4fb45c8328" x="193.74125" y="533.017187" style="stroke: #000000; stroke-width: 0.8"/>
      </g>
     </g>
     <g id="text_14">
      <!-- 2.4 -->
      <g transform="translate(185.789688 547.615625) scale(0.1 -0.1)">
       <defs>
        <path id="DejaVuSerif-34" d="M 2234 1581 
L 2234 4063 
L 641 1581 
L 2234 1581 
z
M 3609 0 
L 1484 0 
L 1484 331 
L 2234 331 
L 2234 1247 
L 197 1247 
L 197 1588 
L 2241 4750 
L 2859 4750 
L 2859 1581 
L 3750 1581 
L 3750 1247 
L 2859 1247 
L 2859 331 
L 3609 331 
L 3609 0 
z
" transform="scale(0.015625)"/>
       </defs>
       <use xlink:href="#DejaVuSerif-32"/>
       <use xlink:href="#DejaVuSerif-2e" transform="translate(63.623047 0)"/>
       <use xlink:href="#DejaVuSerif-34" transform="translate(95.410156 0)"/>
      </g>
     </g>
    </g>
    <g id="xtick_10">
     <g id="line2d_37">
      <path d="M 266.910313 533.017187 
L 266.910313 226.505762 
" clip-path="url(#p3ebe518fd8)" style="fill: none; stroke-dasharray: 0.8,1.32; stroke-dashoffset: 0; stroke: #b0b0b0; stroke-width: 0.8"/>
     </g>
     <g id="line2d_38">
      <g>
       <use xlink:href="#m4fb45c8328" x="266.910313" y="533.017187" style="stroke: #000000; stroke-width: 0.8"/>
      </g>
     </g>
     <g id="text_15">
      <!-- 2.6 -->
      <g transform="translate(258.95875 547.615625) scale(0.1 -0.1)">
       <defs>
        <path id="DejaVuSerif-36" d="M 2094 219 
Q 2534 219 2771 542 
Q 3009 866 3009 1472 
Q 3009 2078 2771 2401 
Q 2534 2725 2094 2725 
Q 1647 2725 1412 2412 
Q 1178 2100 1178 1509 
Q 1178 888 1415 553 
Q 1653 219 2094 219 
z
M 1075 2569 
Q 1288 2803 1556 2918 
Q 1825 3034 2163 3034 
Q 2859 3034 3264 2615 
Q 3669 2197 3669 1472 
Q 3669 763 3233 336 
Q 2797 -91 2069 -91 
Q 1278 -91 853 498 
Q 428 1088 428 2181 
Q 428 3406 931 4078 
Q 1434 4750 2350 4750 
Q 2597 4750 2869 4703 
Q 3141 4656 3425 4563 
L 3425 3794 
L 3072 3794 
Q 3034 4109 2831 4275 
Q 2628 4441 2284 4441 
Q 1678 4441 1381 3981 
Q 1084 3522 1075 2569 
z
" transform="scale(0.015625)"/>
       </defs>
       <use xlink:href="#DejaVuSerif-32"/>
       <use xlink:href="#DejaVuSerif-2e" transform="translate(63.623047 0)"/>
       <use xlink:href="#DejaVuSerif-36" transform="translate(95.410156 0)"/>
      </g>
     </g>
    </g>
    <g id="xtick_11">
     <g id="line2d_39">
      <path d="M 340.079375 533.017187 
L 340.079375 226.505762 
" clip-path="url(#p3ebe518fd8)" style="fill: none; stroke-dasharray: 0.8,1.32; stroke-dashoffset: 0; stroke: #b0b0b0; stroke-width: 0.8"/>
     </g>
     <g id="line2d_40">
      <g>
       <use xlink:href="#m4fb45c8328" x="340.079375" y="533.017187" style="stroke: #000000; stroke-width: 0.8"/>
      </g>
     </g>
     <g id="text_16">
      <!-- 2.8 -->
      <g transform="translate(332.127813 547.615625) scale(0.1 -0.1)">
       <defs>
        <path id="DejaVuSerif-38" d="M 2981 1275 
Q 2981 1775 2732 2051 
Q 2484 2328 2034 2328 
Q 1584 2328 1336 2051 
Q 1088 1775 1088 1275 
Q 1088 772 1336 495 
Q 1584 219 2034 219 
Q 2484 219 2732 495 
Q 2981 772 2981 1275 
z
M 2853 3541 
Q 2853 3966 2637 4203 
Q 2422 4441 2034 4441 
Q 1650 4441 1433 4203 
Q 1216 3966 1216 3541 
Q 1216 3113 1433 2875 
Q 1650 2638 2034 2638 
Q 2422 2638 2637 2875 
Q 2853 3113 2853 3541 
z
M 2516 2484 
Q 3047 2413 3344 2092 
Q 3641 1772 3641 1275 
Q 3641 619 3225 264 
Q 2809 -91 2034 -91 
Q 1263 -91 845 264 
Q 428 619 428 1275 
Q 428 1772 725 2092 
Q 1022 2413 1556 2484 
Q 1084 2569 832 2842 
Q 581 3116 581 3541 
Q 581 4103 968 4426 
Q 1356 4750 2034 4750 
Q 2713 4750 3100 4426 
Q 3488 4103 3488 3541 
Q 3488 3116 3236 2842 
Q 2984 2569 2516 2484 
z
" transform="scale(0.015625)"/>
       </defs>
       <use xlink:href="#DejaVuSerif-32"/>
       <use xlink:href="#DejaVuSerif-2e" transform="translate(63.623047 0)"/>
       <use xlink:href="#DejaVuSerif-38" transform="translate(95.410156 0)"/>
      </g>
     </g>
    </g>
    <g id="xtick_12">
     <g id="line2d_41">
      <path d="M 413.248438 533.017187 
L 413.248438 226.505762 
" clip-path="url(#p3ebe518fd8)" style="fill: none; stroke-dasharray: 0.8,1.32; stroke-dashoffset: 0; stroke: #b0b0b0; stroke-width: 0.8"/>
     </g>
     <g id="line2d_42">
      <g>
       <use xlink:href="#m4fb45c8328" x="413.248438" y="533.017187" style="stroke: #000000; stroke-width: 0.8"/>
      </g>
     </g>
     <g id="text_17">
      <!-- 3.0 -->
      <g transform="translate(405.296875 547.615625) scale(0.1 -0.1)">
       <use xlink:href="#DejaVuSerif-33"/>
       <use xlink:href="#DejaVuSerif-2e" transform="translate(63.623047 0)"/>
       <use xlink:href="#DejaVuSerif-30" transform="translate(95.410156 0)"/>
      </g>
     </g>
    </g>
    <g id="text_18">
     <!-- Bond length (Å) -->
     <g transform="translate(190.320312 562.978125) scale(0.1 -0.1)">
      <defs>
       <path id="DejaVuSerif-42" d="M 1581 331 
L 2516 331 
Q 3078 331 3337 575 
Q 3597 819 3597 1350 
Q 3597 1878 3339 2120 
Q 3081 2363 2516 2363 
L 1581 2363 
L 1581 331 
z
M 1581 2694 
L 2375 2694 
Q 2888 2694 3123 2891 
Q 3359 3088 3359 3513 
Q 3359 3941 3123 4136 
Q 2888 4331 2375 4331 
L 1581 4331 
L 1581 2694 
z
M 353 0 
L 353 331 
L 947 331 
L 947 4331 
L 353 4331 
L 353 4666 
L 2656 4666 
Q 3363 4666 3720 4377 
Q 4078 4088 4078 3513 
Q 4078 3097 3829 2850 
Q 3581 2603 3103 2547 
Q 3697 2472 4005 2167 
Q 4313 1863 4313 1350 
Q 4313 656 3875 328 
Q 3438 0 2509 0 
L 353 0 
z
" transform="scale(0.015625)"/>
       <path id="DejaVuSerif-6e" d="M 263 0 
L 263 331 
L 781 331 
L 781 2988 
L 231 2988 
L 231 3322 
L 1356 3322 
L 1356 2731 
Q 1516 3069 1770 3241 
Q 2025 3413 2363 3413 
Q 2913 3413 3172 3097 
Q 3431 2781 3431 2113 
L 3431 331 
L 3944 331 
L 3944 0 
L 2356 0 
L 2356 331 
L 2853 331 
L 2853 1931 
Q 2853 2541 2703 2767 
Q 2553 2994 2175 2994 
Q 1775 2994 1565 2701 
Q 1356 2409 1356 1850 
L 1356 331 
L 1856 331 
L 1856 0 
L 263 0 
z
" transform="scale(0.015625)"/>
       <path id="DejaVuSerif-64" d="M 3359 331 
L 3909 331 
L 3909 0 
L 2784 0 
L 2784 519 
Q 2616 206 2355 57 
Q 2094 -91 1709 -91 
Q 1097 -91 708 395 
Q 319 881 319 1663 
Q 319 2444 706 2928 
Q 1094 3413 1709 3413 
Q 2094 3413 2355 3264 
Q 2616 3116 2784 2803 
L 2784 4531 
L 2241 4531 
L 2241 4863 
L 3359 4863 
L 3359 331 
z
M 2784 1497 
L 2784 1825 
Q 2784 2422 2554 2737 
Q 2325 3053 1888 3053 
Q 1444 3053 1217 2703 
Q 991 2353 991 1663 
Q 991 975 1217 622 
Q 1444 269 1888 269 
Q 2325 269 2554 583 
Q 2784 897 2784 1497 
z
" transform="scale(0.015625)"/>
       <path id="DejaVuSerif-6c" d="M 1313 331 
L 1856 331 
L 1856 0 
L 184 0 
L 184 331 
L 738 331 
L 738 4531 
L 184 4531 
L 184 4863 
L 1313 4863 
L 1313 331 
z
" transform="scale(0.015625)"/>
       <path id="DejaVuSerif-67" d="M 3359 2988 
L 3359 72 
Q 3359 -644 2965 -1033 
Q 2572 -1422 1844 -1422 
Q 1516 -1422 1216 -1362 
Q 916 -1303 641 -1184 
L 641 -488 
L 941 -488 
Q 997 -813 1206 -963 
Q 1416 -1113 1806 -1113 
Q 2313 -1113 2548 -827 
Q 2784 -541 2784 72 
L 2784 519 
Q 2616 206 2355 57 
Q 2094 -91 1709 -91 
Q 1097 -91 708 395 
Q 319 881 319 1663 
Q 319 2444 706 2928 
Q 1094 3413 1709 3413 
Q 2094 3413 2355 3264 
Q 2616 3116 2784 2803 
L 2784 3322 
L 3909 3322 
L 3909 2988 
L 3359 2988 
z
M 2784 1825 
Q 2784 2422 2554 2737 
Q 2325 3053 1888 3053 
Q 1444 3053 1217 2703 
Q 991 2353 991 1663 
Q 991 975 1217 622 
Q 1444 269 1888 269 
Q 2325 269 2554 583 
Q 2784 897 2784 1497 
L 2784 1825 
z
" transform="scale(0.015625)"/>
       <path id="DejaVuSerif-68" d="M 263 0 
L 263 331 
L 781 331 
L 781 4531 
L 231 4531 
L 231 4863 
L 1356 4863 
L 1356 2731 
Q 1516 3069 1770 3241 
Q 2025 3413 2363 3413 
Q 2913 3413 3172 3097 
Q 3431 2781 3431 2113 
L 3431 331 
L 3944 331 
L 3944 0 
L 2356 0 
L 2356 331 
L 2853 331 
L 2853 1931 
Q 2853 2541 2704 2764 
Q 2556 2988 2175 2988 
Q 1775 2988 1565 2697 
Q 1356 2406 1356 1850 
L 1356 331 
L 1856 331 
L 1856 0 
L 263 0 
z
" transform="scale(0.015625)"/>
       <path id="DejaVuSerif-212b" d="M 2772 5081 
Q 2772 5278 2633 5417 
Q 2494 5556 2297 5556 
Q 2097 5556 1961 5420 
Q 1825 5284 1825 5081 
Q 1825 4884 1961 4746 
Q 2097 4609 2297 4609 
Q 2494 4609 2633 4746 
Q 2772 4884 2772 5081 
z
M 1281 1691 
L 2988 1691 
L 2138 3909 
L 1281 1691 
z
M -38 0 
L -38 331 
L 372 331 
L 1900 4325 
Q 1675 4441 1558 4631 
Q 1441 4822 1441 5081 
Q 1441 5438 1691 5689 
Q 1941 5941 2297 5941 
Q 2653 5941 2904 5689 
Q 3156 5438 3156 5081 
Q 3156 4831 3034 4632 
Q 2913 4434 2688 4325 
L 4225 331 
L 4684 331 
L 4684 0 
L 2988 0 
L 2988 331 
L 3506 331 
L 3116 1356 
L 1153 1356 
L 763 331 
L 1275 331 
L 1275 0 
L -38 0 
z
" transform="scale(0.015625)"/>
      </defs>
      <use xlink:href="#DejaVuSerif-42"/>
      <use xlink:href="#DejaVuSerif-6f" transform="translate(73.486328 0)"/>
      <use xlink:href="#DejaVuSerif-6e" transform="translate(133.691406 0)"/>
      <use xlink:href="#DejaVuSerif-64" transform="translate(198.095703 0)"/>
      <use xlink:href="#DejaVuSerif-20" transform="translate(262.109375 0)"/>
      <use xlink:href="#DejaVuSerif-6c" transform="translate(293.896484 0)"/>
      <use xlink:href="#DejaVuSerif-65" transform="translate(325.878906 0)"/>
      <use xlink:href="#DejaVuSerif-6e" transform="translate(385.058594 0)"/>
      <use xlink:href="#DejaVuSerif-67" transform="translate(449.462891 0)"/>
      <use xlink:href="#DejaVuSerif-74" transform="translate(513.476562 0)"/>
      <use xlink:href="#DejaVuSerif-68" transform="translate(553.662109 0)"/>
      <use xlink:href="#DejaVuSerif-20" transform="translate(618.066406 0)"/>
      <use xlink:href="#DejaVuSerif-28" transform="translate(649.853516 0)"/>
      <use xlink:href="#DejaVuSerif-212b" transform="translate(688.867188 0)"/>
      <use xlink:href="#DejaVuSerif-29" transform="translate(761.083984 0)"/>
     </g>
    </g>
   </g>
   <g id="matplotlib.axis_4">
    <g id="ytick_6">
     <g id="line2d_43">
      <path d="M 47.403125 533.017187 
L 413.248437 533.017187 
" clip-path="url(#p3ebe518fd8)" style="fill: none; stroke-dasharray: 0.8,1.32; stroke-dashoffset: 0; stroke: #b0b0b0; stroke-width: 0.8"/>
     </g>
     <g id="line2d_44">
      <g>
       <use xlink:href="#m4ae7cb0ea2" x="47.403125" y="533.017187" style="stroke: #000000; stroke-width: 0.8"/>
      </g>
     </g>
     <g id="text_19">
      <!-- 0.0 -->
      <g transform="translate(24.5 536.816406) scale(0.1 -0.1)">
       <use xlink:href="#DejaVuSerif-30"/>
       <use xlink:href="#DejaVuSerif-2e" transform="translate(63.623047 0)"/>
       <use xlink:href="#DejaVuSerif-30" transform="translate(95.410156 0)"/>
      </g>
     </g>
    </g>
    <g id="ytick_7">
     <g id="line2d_45">
      <path d="M 47.403125 489.229841 
L 413.248437 489.229841 
" clip-path="url(#p3ebe518fd8)" style="fill: none; stroke-dasharray: 0.8,1.32; stroke-dashoffset: 0; stroke: #b0b0b0; stroke-width: 0.8"/>
     </g>
     <g id="line2d_46">
      <g>
       <use xlink:href="#m4ae7cb0ea2" x="47.403125" y="489.229841" style="stroke: #000000; stroke-width: 0.8"/>
      </g>
     </g>
     <g id="text_20">
      <!-- 0.1 -->
      <g transform="translate(24.5 493.02906) scale(0.1 -0.1)">
       <use xlink:href="#DejaVuSerif-30"/>
       <use xlink:href="#DejaVuSerif-2e" transform="translate(63.623047 0)"/>
       <use xlink:href="#DejaVuSerif-31" transform="translate(95.410156 0)"/>
      </g>
     </g>
    </g>
    <g id="ytick_8">
     <g id="line2d_47">
      <path d="M 47.403125 445.442494 
L 413.248437 445.442494 
" clip-path="url(#p3ebe518fd8)" style="fill: none; stroke-dasharray: 0.8,1.32; stroke-dashoffset: 0; stroke: #b0b0b0; stroke-width: 0.8"/>
     </g>
     <g id="line2d_48">
      <g>
       <use xlink:href="#m4ae7cb0ea2" x="47.403125" y="445.442494" style="stroke: #000000; stroke-width: 0.8"/>
      </g>
     </g>
     <g id="text_21">
      <!-- 0.2 -->
      <g transform="translate(24.5 449.241713) scale(0.1 -0.1)">
       <use xlink:href="#DejaVuSerif-30"/>
       <use xlink:href="#DejaVuSerif-2e" transform="translate(63.623047 0)"/>
       <use xlink:href="#DejaVuSerif-32" transform="translate(95.410156 0)"/>
      </g>
     </g>
    </g>
    <g id="ytick_9">
     <g id="line2d_49">
      <path d="M 47.403125 401.655148 
L 413.248437 401.655148 
" clip-path="url(#p3ebe518fd8)" style="fill: none; stroke-dasharray: 0.8,1.32; stroke-dashoffset: 0; stroke: #b0b0b0; stroke-width: 0.8"/>
     </g>
     <g id="line2d_50">
      <g>
       <use xlink:href="#m4ae7cb0ea2" x="47.403125" y="401.655148" style="stroke: #000000; stroke-width: 0.8"/>
      </g>
     </g>
     <g id="text_22">
      <!-- 0.3 -->
      <g transform="translate(24.5 405.454367) scale(0.1 -0.1)">
       <use xlink:href="#DejaVuSerif-30"/>
       <use xlink:href="#DejaVuSerif-2e" transform="translate(63.623047 0)"/>
       <use xlink:href="#DejaVuSerif-33" transform="translate(95.410156 0)"/>
      </g>
     </g>
    </g>
    <g id="ytick_10">
     <g id="line2d_51">
      <path d="M 47.403125 357.867801 
L 413.248437 357.867801 
" clip-path="url(#p3ebe518fd8)" style="fill: none; stroke-dasharray: 0.8,1.32; stroke-dashoffset: 0; stroke: #b0b0b0; stroke-width: 0.8"/>
     </g>
     <g id="line2d_52">
      <g>
       <use xlink:href="#m4ae7cb0ea2" x="47.403125" y="357.867801" style="stroke: #000000; stroke-width: 0.8"/>
      </g>
     </g>
     <g id="text_23">
      <!-- 0.4 -->
      <g transform="translate(24.5 361.66702) scale(0.1 -0.1)">
       <use xlink:href="#DejaVuSerif-30"/>
       <use xlink:href="#DejaVuSerif-2e" transform="translate(63.623047 0)"/>
       <use xlink:href="#DejaVuSerif-34" transform="translate(95.410156 0)"/>
      </g>
     </g>
    </g>
    <g id="ytick_11">
     <g id="line2d_53">
      <path d="M 47.403125 314.080455 
L 413.248437 314.080455 
" clip-path="url(#p3ebe518fd8)" style="fill: none; stroke-dasharray: 0.8,1.32; stroke-dashoffset: 0; stroke: #b0b0b0; stroke-width: 0.8"/>
     </g>
     <g id="line2d_54">
      <g>
       <use xlink:href="#m4ae7cb0ea2" x="47.403125" y="314.080455" style="stroke: #000000; stroke-width: 0.8"/>
      </g>
     </g>
     <g id="text_24">
      <!-- 0.5 -->
      <g transform="translate(24.5 317.879674) scale(0.1 -0.1)">
       <use xlink:href="#DejaVuSerif-30"/>
       <use xlink:href="#DejaVuSerif-2e" transform="translate(63.623047 0)"/>
       <use xlink:href="#DejaVuSerif-35" transform="translate(95.410156 0)"/>
      </g>
     </g>
    </g>
    <g id="ytick_12">
     <g id="line2d_55">
      <path d="M 47.403125 270.293108 
L 413.248437 270.293108 
" clip-path="url(#p3ebe518fd8)" style="fill: none; stroke-dasharray: 0.8,1.32; stroke-dashoffset: 0; stroke: #b0b0b0; stroke-width: 0.8"/>
     </g>
     <g id="line2d_56">
      <g>
       <use xlink:href="#m4ae7cb0ea2" x="47.403125" y="270.293108" style="stroke: #000000; stroke-width: 0.8"/>
      </g>
     </g>
     <g id="text_25">
      <!-- 0.6 -->
      <g transform="translate(24.5 274.092327) scale(0.1 -0.1)">
       <use xlink:href="#DejaVuSerif-30"/>
       <use xlink:href="#DejaVuSerif-2e" transform="translate(63.623047 0)"/>
       <use xlink:href="#DejaVuSerif-36" transform="translate(95.410156 0)"/>
      </g>
     </g>
    </g>
    <g id="text_26">
     <!-- $\mu_{14}$ (a.u.) -->
     <g transform="translate(18.4 402.411475) rotate(-90) scale(0.1 -0.1)">
      <defs>
       <path id="DejaVuSerif-75" d="M 2266 3322 
L 3341 3322 
L 3341 331 
L 3884 331 
L 3884 0 
L 2766 0 
L 2766 588 
Q 2606 256 2353 82 
Q 2100 -91 1766 -91 
Q 1213 -91 952 223 
Q 691 538 691 1209 
L 691 2988 
L 172 2988 
L 172 3322 
L 1269 3322 
L 1269 1388 
Q 1269 781 1417 556 
Q 1566 331 1947 331 
Q 2347 331 2556 625 
Q 2766 919 2766 1478 
L 2766 2988 
L 2266 2988 
L 2266 3322 
z
" transform="scale(0.015625)"/>
      </defs>
      <use xlink:href="#DejaVuSans-Oblique-3bc" transform="translate(0 0.015625)"/>
      <use xlink:href="#DejaVuSans-31" transform="translate(63.623047 -16.390625) scale(0.7)"/>
      <use xlink:href="#DejaVuSans-34" transform="translate(108.15918 -16.390625) scale(0.7)"/>
      <use xlink:href="#DejaVuSerif-20" transform="translate(155.429688 0.015625)"/>
      <use xlink:href="#DejaVuSerif-28" transform="translate(187.216797 0.015625)"/>
      <use xlink:href="#DejaVuSerif-61" transform="translate(226.230469 0.015625)"/>
      <use xlink:href="#DejaVuSerif-2e" transform="translate(285.849609 0.015625)"/>
      <use xlink:href="#DejaVuSerif-75" transform="translate(317.636719 0.015625)"/>
      <use xlink:href="#DejaVuSerif-2e" transform="translate(382.041016 0.015625)"/>
      <use xlink:href="#DejaVuSerif-29" transform="translate(413.828125 0.015625)"/>
     </g>
    </g>
   </g>
   <g id="line2d_57">
    <path d="M 47.403125 492.123593 
L 51.061578 493.732268 
L 54.720031 495.359691 
L 58.378484 497.007796 
L 62.036937 498.676738 
L 65.695391 500.36715 
L 69.353844 502.084615 
L 73.012297 503.818219 
L 76.67075 505.573681 
L 80.329203 507.351404 
L 83.987656 509.151812 
L 87.646109 510.975368 
L 91.304562 512.822544 
L 94.963016 514.693841 
L 98.621469 516.58979 
L 102.279922 518.510947 
L 105.938375 520.45789 
L 109.596828 522.431226 
L 113.255281 524.43159 
L 116.913734 526.459643 
L 120.572187 528.516077 
L 124.230641 530.60161 
L 127.889094 532.716991 
L 131.547547 531.171375 
L 135.206 528.993928 
L 138.864453 526.784201 
L 142.522906 524.541319 
L 146.181359 522.264374 
L 149.839812 519.952425 
L 153.498266 517.604495 
L 157.156719 515.219574 
L 160.815172 512.79658 
L 164.473625 510.334497 
L 168.132078 507.832165 
L 171.790531 505.288425 
L 175.448984 502.702076 
L 179.107437 500.071878 
L 182.765891 497.39655 
L 186.424344 494.674768 
L 190.082797 491.905168 
L 193.74125 489.086341 
L 197.399703 486.216834 
L 201.058156 483.295148 
L 204.716609 480.319739 
L 208.375062 477.289021 
L 212.033516 474.201355 
L 215.691969 471.055052 
L 219.350422 467.848387 
L 223.008875 464.57957 
L 226.667328 461.246776 
L 230.325781 457.848127 
L 233.984234 454.38168 
L 237.642687 450.845465 
L 241.301141 447.237443 
L 244.959594 443.555531 
L 248.618047 439.797611 
L 252.2765 435.961469 
L 255.934953 432.044915 
L 259.593406 428.045624 
L 263.251859 423.961295 
L 266.910312 419.789532 
L 270.568766 415.527931 
L 274.227219 411.174012 
L 277.885672 406.725261 
L 281.544125 402.179136 
L 285.202578 397.533037 
L 288.861031 392.784357 
L 292.519484 387.930303 
L 296.177937 382.968457 
L 299.836391 377.894749 
L 303.494844 372.708966 
L 307.153297 367.407131 
L 310.81175 361.986532 
L 314.470203 356.444414 
L 318.128656 350.778054 
L 321.787109 344.984763 
L 325.445562 339.061864 
L 329.104016 333.006694 
L 332.762469 326.816661 
L 336.420922 320.489208 
L 340.079375 314.021852 
L 343.737828 307.412183 
L 347.396281 300.608891 
L 351.054734 293.708146 
L 354.713187 286.661406 
L 358.371641 279.464142 
L 362.030094 272.110175 
L 365.688547 264.601605 
L 369.347 256.982153 
L 373.005453 249.157079 
L 376.663906 241.179253 
L 380.322359 233.018107 
L 383.980812 224.803358 
L 387.639266 216.318375 
L 391.297719 207.707559 
L 394.956172 198.914741 
L 398.614625 189.985458 
L 402.273078 180.899617 
L 405.931531 171.658754 
L 409.589984 162.265661 
L 413.248437 152.721044 
" clip-path="url(#p3ebe518fd8)" style="fill: none; stroke: #d62728; stroke-width: 2; stroke-linecap: square"/>
   </g>
   <g id="line2d_58">
    <path d="M 47.403125 499.935608 
L 51.061578 501.570339 
L 54.720031 503.474083 
L 58.378484 505.475263 
L 62.036937 507.410187 
L 65.695391 509.148394 
L 69.353844 510.619976 
L 73.012297 511.832817 
L 76.67075 512.867136 
L 80.329203 513.847244 
L 83.987656 514.903347 
L 87.646109 516.13977 
L 91.304562 517.619752 
L 94.963016 519.367451 
L 98.621469 521.380953 
L 102.279922 523.648296 
L 105.938375 526.160476 
L 109.596828 528.918711 
L 113.255281 531.936117 
L 116.913734 530.798853 
L 120.572187 527.188854 
L 124.230641 523.237831 
L 127.889094 518.916369 
L 131.547547 514.19743 
L 135.206 509.056326 
L 138.864453 503.469657 
L 142.522906 497.413676 
L 146.181359 490.862449 
L 149.839812 483.786111 
L 153.498266 476.149328 
L 157.156719 467.910016 
L 160.815172 459.018267 
L 164.473625 449.415394 
L 168.132078 439.032981 
L 171.790531 427.791839 
L 175.448984 415.600749 
L 179.107437 402.354894 
L 182.765891 387.933862 
L 186.424344 372.199097 
L 190.082797 354.990653 
L 193.74125 336.123047 
L 197.399703 315.379974 
L 201.058156 292.507521 
L 204.716609 267.205427 
L 208.375062 239.115708 
L 212.033516 207.807716 
L 215.691969 172.758281 
L 219.350422 133.324946 
L 223.008875 88.709346 
L 226.667328 37.906219 
L 229.109818 -1 
" clip-path="url(#p3ebe518fd8)" style="fill: none; stroke: #1f77b4; stroke-width: 2; stroke-linecap: square"/>
   </g>
   <g id="line2d_59">
    <path d="M 47.403125 464.081983 
L 51.061578 465.095986 
L 54.720031 466.228253 
L 58.378484 467.406705 
L 62.036937 468.563081 
L 65.695391 469.64282 
L 69.353844 470.615468 
L 73.012297 471.480803 
L 76.67075 472.26606 
L 80.329203 473.014702 
L 83.987656 473.771933 
L 87.646109 474.573104 
L 91.304562 475.438493 
L 94.963016 476.374332 
L 98.621469 477.377597 
L 102.279922 478.441603 
L 105.938375 479.560359 
L 109.596828 480.730842 
L 113.255281 481.953379 
L 116.913734 483.230795 
L 120.572187 484.567069 
L 124.230641 485.966056 
L 127.889094 487.430605 
L 131.547547 488.962151 
L 135.206 490.560708 
L 138.864453 492.225153 
L 142.522906 493.953627 
L 146.181359 495.743944 
L 149.839812 497.593944 
L 153.498266 499.501729 
L 157.156719 501.465806 
L 160.815172 503.485136 
L 164.473625 505.559114 
L 168.132078 507.687509 
L 171.790531 509.870382 
L 175.448984 512.107997 
L 179.107437 514.400738 
L 182.765891 516.749032 
L 186.424344 519.153288 
L 190.082797 521.613847 
L 193.74125 524.130946 
L 197.399703 526.704693 
L 201.058156 529.335045 
L 204.716609 532.021802 
L 208.375062 531.269771 
L 212.033516 528.47145 
L 215.691969 525.618293 
L 219.350422 522.711137 
L 223.008875 519.750961 
L 226.667328 516.738885 
L 230.325781 513.676151 
L 233.984234 510.564118 
L 237.642687 507.404249 
L 241.301141 504.198098 
L 244.959594 500.947302 
L 248.618047 497.653569 
L 252.2765 494.318664 
L 255.934953 490.944403 
L 259.593406 487.532635 
L 263.251859 484.085237 
L 266.910312 480.6041 
L 270.568766 477.091118 
L 274.227219 473.548178 
L 277.885672 469.977147 
L 281.544125 466.379865 
L 285.202578 462.758128 
L 288.861031 459.113682 
L 292.519484 455.448214 
L 296.177937 451.763337 
L 299.836391 448.060583 
L 303.494844 444.341396 
L 307.153297 440.607119 
L 310.81175 436.858987 
L 314.470203 433.098119 
L 318.128656 429.325511 
L 321.787109 425.542023 
L 325.445562 421.748378 
L 329.104016 417.945149 
L 332.762469 414.132755 
L 336.420922 410.311453 
L 340.079375 406.481333 
L 343.737828 402.642309 
L 347.396281 398.794117 
L 351.054734 394.936308 
L 354.713187 391.068241 
L 358.371641 387.189082 
L 362.030094 383.297797 
L 365.688547 379.393145 
L 369.347 375.473677 
L 373.005453 371.537726 
L 376.663906 367.583407 
L 380.322359 363.608602 
L 383.980812 359.610963 
L 387.639266 355.587898 
L 391.297719 351.536563 
L 394.956172 347.45386 
L 398.614625 343.336419 
L 402.273078 339.180596 
L 405.931531 334.982458 
L 409.589984 330.737778 
L 413.248437 326.442016 
" clip-path="url(#p3ebe518fd8)" style="fill: none; stroke: #2ca02c; stroke-width: 2; stroke-linecap: square"/>
   </g>
   <g id="line2d_60">
    <path d="M 47.403125 486.69155 
L 51.061578 488.006738 
L 54.720031 489.320727 
L 58.378484 490.632754 
L 62.036937 491.942808 
L 65.695391 493.251188 
L 69.353844 494.558402 
L 73.012297 495.865007 
L 76.67075 497.171462 
L 80.329203 498.478019 
L 83.987656 499.784701 
L 87.646109 501.091338 
L 91.304562 502.397639 
L 94.963016 503.703271 
L 98.621469 505.007913 
L 102.279922 506.311287 
L 105.938375 507.613155 
L 109.596828 508.91331 
L 113.255281 510.211554 
L 116.913734 511.507686 
L 120.572187 512.801492 
L 124.230641 514.092746 
L 127.889094 515.381216 
L 131.547547 516.666675 
L 135.206 517.948911 
L 138.864453 519.227737 
L 142.522906 520.502996 
L 146.181359 521.774571 
L 149.839812 523.042382 
L 153.498266 524.306387 
L 157.156719 525.566578 
L 160.815172 526.822983 
L 164.473625 528.075654 
L 168.132078 529.324672 
L 171.790531 530.570139 
L 175.448984 531.812175 
L 179.107437 532.983459 
L 182.765891 531.74786 
L 186.424344 530.515237 
L 190.082797 529.285412 
L 193.74125 528.058196 
L 197.399703 526.833388 
L 201.058156 525.610773 
L 204.716609 524.390128 
L 208.375062 523.171218 
L 212.033516 521.953795 
L 215.691969 520.737601 
L 219.350422 519.522365 
L 223.008875 518.307805 
L 226.667328 517.093626 
L 230.325781 515.879521 
L 233.984234 514.665169 
L 237.642687 513.450238 
L 241.301141 512.23438 
L 244.959594 511.017234 
L 248.618047 509.798424 
L 252.2765 508.577559 
L 255.934953 507.354236 
L 259.593406 506.128031 
L 263.251859 504.89851 
L 266.910312 503.665218 
L 270.568766 502.427684 
L 274.227219 501.185421 
L 277.885672 499.937921 
L 281.544125 498.684657 
L 285.202578 497.425083 
L 288.861031 496.158628 
L 292.519484 494.884701 
L 296.177937 493.602686 
L 299.836391 492.31194 
L 303.494844 491.011797 
L 307.153297 489.701558 
L 310.81175 488.380496 
L 314.470203 487.047853 
L 318.128656 485.702834 
L 321.787109 484.344609 
L 325.445562 482.97231 
L 329.104016 481.585024 
L 332.762469 480.181795 
L 336.420922 478.761618 
L 340.079375 477.323436 
L 343.737828 475.866135 
L 347.396281 474.388542 
L 351.054734 472.889419 
L 354.713187 471.367457 
L 358.371641 469.821274 
L 362.030094 468.249408 
L 365.688547 466.650307 
L 369.347 465.02233 
L 373.005453 463.363731 
L 376.663906 461.672659 
L 380.322359 459.947144 
L 383.980812 458.185088 
L 387.639266 456.384257 
L 391.297719 454.542269 
L 394.956172 452.656581 
L 398.614625 450.724478 
L 402.273078 448.743059 
L 405.931531 446.70922 
L 409.589984 444.619642 
L 413.248437 442.470772 
" clip-path="url(#p3ebe518fd8)" style="fill: none; stroke: #ff7f0e; stroke-width: 2; stroke-linecap: square"/>
   </g>
   <g id="patch_9">
    <path d="M 47.403125 533.017187 
L 47.403125 226.505762 
" style="fill: none; stroke: #000000; stroke-width: 0.8; stroke-linejoin: miter; stroke-linecap: square"/>
   </g>
   <g id="patch_10">
    <path d="M 413.248437 533.017187 
L 413.248437 226.505762 
" style="fill: none; stroke: #000000; stroke-width: 0.8; stroke-linejoin: miter; stroke-linecap: square"/>
   </g>
   <g id="patch_11">
    <path d="M 47.403125 533.017187 
L 413.248437 533.017187 
" style="fill: none; stroke: #000000; stroke-width: 0.8; stroke-linejoin: miter; stroke-linecap: square"/>
   </g>
   <g id="patch_12">
    <path d="M 47.403125 226.505762 
L 413.248437 226.505762 
" style="fill: none; stroke: #000000; stroke-width: 0.8; stroke-linejoin: miter; stroke-linecap: square"/>
   </g>
   <g id="legend_2">
    <g id="patch_13">
     <path d="M 54.403125 295.140137 
L 161.503125 295.140137 
Q 163.503125 295.140137 163.503125 293.140137 
L 163.503125 233.505762 
Q 163.503125 231.505762 161.503125 231.505762 
L 54.403125 231.505762 
Q 52.403125 231.505762 52.403125 233.505762 
L 52.403125 293.140137 
Q 52.403125 295.140137 54.403125 295.140137 
z
" style="fill: #ffffff; opacity: 0.8; stroke: #cccccc; stroke-linejoin: miter"/>
    </g>
    <g id="line2d_61">
     <path d="M 56.403125 239.604199 
L 66.403125 239.604199 
L 76.403125 239.604199 
" style="fill: none; stroke: #d62728; stroke-width: 2; stroke-linecap: square"/>
    </g>
    <g id="text_27">
     <!-- FCI -->
     <g transform="translate(84.403125 243.104199) scale(0.1 -0.1)">
      <defs>
       <path id="DejaVuSerif-43" d="M 4513 1234 
Q 4306 581 3820 245 
Q 3334 -91 2591 -91 
Q 2134 -91 1743 65 
Q 1353 222 1050 525 
Q 700 875 529 1320 
Q 359 1766 359 2328 
Q 359 3416 987 4083 
Q 1616 4750 2644 4750 
Q 3025 4750 3456 4650 
Q 3888 4550 4384 4347 
L 4384 3272 
L 4031 3272 
Q 3916 3859 3567 4137 
Q 3219 4416 2591 4416 
Q 1844 4416 1459 3886 
Q 1075 3356 1075 2328 
Q 1075 1303 1459 773 
Q 1844 244 2591 244 
Q 3113 244 3450 492 
Q 3788 741 3938 1234 
L 4513 1234 
z
" transform="scale(0.015625)"/>
       <path id="DejaVuSerif-49" d="M 1581 331 
L 2175 331 
L 2175 0 
L 353 0 
L 353 331 
L 947 331 
L 947 4331 
L 353 4331 
L 353 4666 
L 2175 4666 
L 2175 4331 
L 1581 4331 
L 1581 331 
z
" transform="scale(0.015625)"/>
      </defs>
      <use xlink:href="#DejaVuSerif-46"/>
      <use xlink:href="#DejaVuSerif-43" transform="translate(69.384766 0)"/>
      <use xlink:href="#DejaVuSerif-49" transform="translate(145.898438 0)"/>
     </g>
    </g>
    <g id="line2d_62">
     <path d="M 56.403125 254.282324 
L 66.403125 254.282324 
L 76.403125 254.282324 
" style="fill: none; stroke: #1f77b4; stroke-width: 2; stroke-linecap: square"/>
    </g>
    <g id="text_28">
     <!-- Full QR -->
     <g transform="translate(84.403125 257.782324) scale(0.1 -0.1)">
      <defs>
       <path id="DejaVuSerif-51" d="M 2700 -91 
Q 1628 -91 993 567 
Q 359 1225 359 2328 
Q 359 2894 529 3339 
Q 700 3784 1050 4134 
Q 1356 4441 1750 4595 
Q 2144 4750 2625 4750 
Q 3641 4750 4266 4084 
Q 4891 3419 4891 2328 
Q 4891 1403 4422 773 
Q 3953 144 3128 -38 
Q 3297 -247 3539 -347 
Q 3781 -447 4122 -447 
L 4219 -447 
L 4219 -1025 
Q 3691 -1000 3314 -767 
Q 2938 -534 2700 -91 
z
M 2625 244 
Q 3391 244 3781 770 
Q 4172 1297 4172 2328 
Q 4172 3363 3781 3889 
Q 3391 4416 2625 4416 
Q 1856 4416 1465 3889 
Q 1075 3363 1075 2328 
Q 1075 1297 1465 770 
Q 1856 244 2625 244 
z
" transform="scale(0.015625)"/>
       <path id="DejaVuSerif-52" d="M 3066 2316 
Q 3284 2256 3442 2114 
Q 3600 1972 3725 1716 
L 4403 331 
L 4972 331 
L 4972 0 
L 3872 0 
L 3144 1484 
Q 2934 1916 2759 2042 
Q 2584 2169 2278 2169 
L 1581 2169 
L 1581 331 
L 2241 331 
L 2241 0 
L 353 0 
L 353 331 
L 947 331 
L 947 4331 
L 353 4331 
L 353 4666 
L 2719 4666 
Q 3400 4666 3770 4341 
Q 4141 4016 4141 3419 
Q 4141 2938 3870 2661 
Q 3600 2384 3066 2316 
z
M 1581 2503 
L 2503 2503 
Q 2975 2503 3200 2726 
Q 3425 2950 3425 3419 
Q 3425 3888 3200 4109 
Q 2975 4331 2503 4331 
L 1581 4331 
L 1581 2503 
z
" transform="scale(0.015625)"/>
      </defs>
      <use xlink:href="#DejaVuSerif-46"/>
      <use xlink:href="#DejaVuSerif-75" transform="translate(69.384766 0)"/>
      <use xlink:href="#DejaVuSerif-6c" transform="translate(133.789062 0)"/>
      <use xlink:href="#DejaVuSerif-6c" transform="translate(165.771484 0)"/>
      <use xlink:href="#DejaVuSerif-20" transform="translate(197.753906 0)"/>
      <use xlink:href="#DejaVuSerif-51" transform="translate(229.541016 0)"/>
      <use xlink:href="#DejaVuSerif-52" transform="translate(311.523438 0)"/>
     </g>
    </g>
    <g id="line2d_63">
     <path d="M 56.403125 268.960449 
L 66.403125 268.960449 
L 76.403125 268.960449 
" style="fill: none; stroke: #2ca02c; stroke-width: 2; stroke-linecap: square"/>
    </g>
    <g id="text_29">
     <!-- pseudo-wav. -->
     <g transform="translate(84.403125 272.460449) scale(0.1 -0.1)">
      <defs>
       <path id="DejaVuSerif-73" d="M 359 184 
L 359 959 
L 691 959 
Q 703 588 923 403 
Q 1144 219 1575 219 
Q 1963 219 2166 364 
Q 2369 509 2369 788 
Q 2369 1006 2220 1140 
Q 2072 1275 1594 1428 
L 1178 1569 
Q 750 1706 558 1912 
Q 366 2119 366 2438 
Q 366 2894 700 3153 
Q 1034 3413 1625 3413 
Q 1888 3413 2178 3344 
Q 2469 3275 2778 3144 
L 2778 2419 
L 2447 2419 
Q 2434 2741 2221 2922 
Q 2009 3103 1644 3103 
Q 1281 3103 1095 2975 
Q 909 2847 909 2591 
Q 909 2381 1050 2254 
Q 1191 2128 1613 1997 
L 2069 1856 
Q 2541 1709 2748 1489 
Q 2956 1269 2956 922 
Q 2956 450 2595 179 
Q 2234 -91 1600 -91 
Q 1278 -91 972 -22 
Q 666 47 359 184 
z
" transform="scale(0.015625)"/>
       <path id="DejaVuSerif-2d" d="M 281 1959 
L 1881 1959 
L 1881 1472 
L 281 1472 
L 281 1959 
z
" transform="scale(0.015625)"/>
       <path id="DejaVuSerif-77" d="M 3072 3322 
L 3922 728 
L 4672 2988 
L 4191 2988 
L 4191 3322 
L 5394 3322 
L 5394 2988 
L 5025 2988 
L 4038 0 
L 3559 0 
L 2741 2484 
L 1919 0 
L 1459 0 
L 475 2988 
L 103 2988 
L 103 3322 
L 1606 3322 
L 1606 2988 
L 1069 2988 
L 1813 728 
L 2669 3322 
L 3072 3322 
z
" transform="scale(0.015625)"/>
       <path id="DejaVuSerif-76" d="M 1581 0 
L 359 2988 
L -19 2988 
L -19 3322 
L 1509 3322 
L 1509 2988 
L 978 2988 
L 1913 703 
L 2847 2988 
L 2350 2988 
L 2350 3322 
L 3597 3322 
L 3597 2988 
L 3225 2988 
L 2003 0 
L 1581 0 
z
" transform="scale(0.015625)"/>
      </defs>
      <use xlink:href="#DejaVuSerif-70"/>
      <use xlink:href="#DejaVuSerif-73" transform="translate(64.013672 0)"/>
      <use xlink:href="#DejaVuSerif-65" transform="translate(115.332031 0)"/>
      <use xlink:href="#DejaVuSerif-75" transform="translate(174.511719 0)"/>
      <use xlink:href="#DejaVuSerif-64" transform="translate(238.916016 0)"/>
      <use xlink:href="#DejaVuSerif-6f" transform="translate(302.929688 0)"/>
      <use xlink:href="#DejaVuSerif-2d" transform="translate(363.134766 0)"/>
      <use xlink:href="#DejaVuSerif-77" transform="translate(396.923828 0)"/>
      <use xlink:href="#DejaVuSerif-61" transform="translate(482.519531 0)"/>
      <use xlink:href="#DejaVuSerif-76" transform="translate(542.138672 0)"/>
      <use xlink:href="#DejaVuSerif-2e" transform="translate(586.757812 0)"/>
     </g>
    </g>
    <g id="line2d_64">
     <path d="M 56.403125 285.240137 
L 66.403125 285.240137 
L 76.403125 285.240137 
" style="fill: none; stroke: #ff7f0e; stroke-width: 2; stroke-linecap: square"/>
    </g>
    <g id="text_30">
     <!-- $\vert X^{(\alpha\beta)},Y^{(\alpha\beta)}\rangle=0$ -->
     <g transform="translate(84.403125 288.740137) scale(0.1 -0.1)">
      <defs>
       <path id="DejaVuSans-7c" d="M 1344 4891 
L 1344 -1509 
L 813 -1509 
L 813 4891 
L 1344 4891 
z
" transform="scale(0.015625)"/>
       <path id="DejaVuSans-Oblique-58" d="M 878 4666 
L 1516 4666 
L 2316 2981 
L 3763 4666 
L 4500 4666 
L 2578 2438 
L 3738 0 
L 3103 0 
L 2163 1966 
L 459 0 
L -275 0 
L 1906 2509 
L 878 4666 
z
" transform="scale(0.015625)"/>
       <path id="DejaVuSans-28" d="M 1984 4856 
Q 1566 4138 1362 3434 
Q 1159 2731 1159 2009 
Q 1159 1288 1364 580 
Q 1569 -128 1984 -844 
L 1484 -844 
Q 1016 -109 783 600 
Q 550 1309 550 2009 
Q 550 2706 781 3412 
Q 1013 4119 1484 4856 
L 1984 4856 
z
" transform="scale(0.015625)"/>
       <path id="DejaVuSans-Oblique-3b1" d="M 2619 1628 
L 2622 2350 
Q 2625 3088 2069 3091 
Q 1653 3094 1394 2747 
Q 1069 2319 959 1747 
Q 825 1059 994 731 
Q 1169 397 1547 397 
Q 1966 397 2319 1063 
L 2619 1628 
z
M 2166 3578 
Q 3141 3594 3128 2584 
Q 3128 2584 3616 3500 
L 4128 3500 
L 3119 1603 
L 3109 919 
Q 3109 766 3194 638 
Q 3291 488 3391 488 
L 3669 488 
L 3575 0 
L 3228 0 
Q 2934 0 2722 263 
Q 2622 394 2619 669 
Q 2416 334 2066 50 
Q 1900 -81 1453 -78 
Q 722 -72 456 397 
Q 184 884 353 1747 
Q 534 2675 1009 3097 
Q 1544 3569 2166 3578 
z
" transform="scale(0.015625)"/>
       <path id="DejaVuSans-Oblique-3b2" d="M 872 216 
L 572 -1331 
L -6 -1331 
L 928 3478 
Q 1206 4903 2538 4903 
Q 3888 4903 3659 3700 
Q 3503 2844 2894 2531 
Q 3713 2250 3553 1416 
Q 3272 -69 1759 -66 
Q 1097 -63 872 216 
z
M 1019 966 
Q 1259 422 1875 425 
Q 2775 425 2966 1406 
Q 3138 2288 1675 2219 
L 1778 2750 
Q 2909 2731 3106 3750 
Q 3241 4438 2509 4434 
Q 1691 4434 1503 3459 
L 1019 966 
z
" transform="scale(0.015625)"/>
       <path id="DejaVuSans-29" d="M 513 4856 
L 1013 4856 
Q 1481 4119 1714 3412 
Q 1947 2706 1947 2009 
Q 1947 1309 1714 600 
Q 1481 -109 1013 -844 
L 513 -844 
Q 928 -128 1133 580 
Q 1338 1288 1338 2009 
Q 1338 2731 1133 3434 
Q 928 4138 513 4856 
z
" transform="scale(0.015625)"/>
       <path id="DejaVuSans-2c" d="M 750 794 
L 1409 794 
L 1409 256 
L 897 -744 
L 494 -744 
L 750 256 
L 750 794 
z
" transform="scale(0.015625)"/>
       <path id="DejaVuSans-Oblique-59" d="M 403 4666 
L 1081 4666 
L 1953 2747 
L 3616 4666 
L 4325 4666 
L 2209 2222 
L 1778 0 
L 1147 0 
L 1575 2222 
L 403 4666 
z
" transform="scale(0.015625)"/>
       <path id="DejaVuSans-27e9" d="M 1925 2006 
L 1044 -844 
L 513 -844 
L 1394 2006 
L 513 4856 
L 1044 4856 
L 1925 2006 
z
" transform="scale(0.015625)"/>
       <path id="DejaVuSans-3d" d="M 678 2906 
L 4684 2906 
L 4684 2381 
L 678 2381 
L 678 2906 
z
M 678 1631 
L 4684 1631 
L 4684 1100 
L 678 1100 
L 678 1631 
z
" transform="scale(0.015625)"/>
      </defs>
      <use xlink:href="#DejaVuSans-7c" transform="translate(0 0.092187)"/>
      <use xlink:href="#DejaVuSans-Oblique-58" transform="translate(33.691406 0.092187)"/>
      <use xlink:href="#DejaVuSans-28" transform="translate(109.214036 38.373437) scale(0.7)"/>
      <use xlink:href="#DejaVuSans-Oblique-3b1" transform="translate(136.523607 38.373437) scale(0.7)"/>
      <use xlink:href="#DejaVuSans-Oblique-3b2" transform="translate(182.666185 38.373437) scale(0.7)"/>
      <use xlink:href="#DejaVuSans-29" transform="translate(227.339036 38.373437) scale(0.7)"/>
      <use xlink:href="#DejaVuSans-2c" transform="translate(257.382982 0.092187)"/>
      <use xlink:href="#DejaVuSans-Oblique-59" transform="translate(308.652513 0.092187)"/>
      <use xlink:href="#DejaVuSans-28" transform="translate(376.753268 38.373437) scale(0.7)"/>
      <use xlink:href="#DejaVuSans-Oblique-3b1" transform="translate(404.062839 38.373437) scale(0.7)"/>
      <use xlink:href="#DejaVuSans-Oblique-3b2" transform="translate(450.205417 38.373437) scale(0.7)"/>
      <use xlink:href="#DejaVuSans-29" transform="translate(494.878268 38.373437) scale(0.7)"/>
      <use xlink:href="#DejaVuSans-27e9" transform="translate(524.922214 0.092187)"/>
      <use xlink:href="#DejaVuSans-3d" transform="translate(583.418307 0.092187)"/>
      <use xlink:href="#DejaVuSans-30" transform="translate(686.689792 0.092187)"/>
     </g>
    </g>
   </g>
  </g>
 </g>
 <defs>
  <clipPath id="pff99e8f3a5">
   <rect x="47.403125" y="25.92" width="365.845312" height="183.906855"/>
  </clipPath>
  <clipPath id="p3ebe518fd8">
   <rect x="47.403125" y="226.505762" width="365.845312" height="306.511426"/>
  </clipPath>
 </defs>
</svg>
